<svg width="47" height="52" viewBox="0 0 47 52" fill="none" xmlns="http://www.w3.org/2000/svg">
<path d="M22.1961 9.11356C21.9482 8.49383 21.2045 8.12199 20.5848 8.36988C19.965 8.61778 19.5932 9.36146 19.8411 9.98119C20.089 10.6009 20.8326 10.9728 21.4524 10.7249C22.0721 10.477 22.444 9.7333 22.1961 9.11356Z" fill="url(#paint0_linear_10_426)"/>
<path d="M11.6606 11.8404C11.0409 12.0883 10.669 12.832 10.9169 13.4517C11.1648 14.0714 11.9085 14.4433 12.5283 14.1954C13.148 13.9475 13.5198 13.2038 13.2719 12.5841C13.024 11.8404 12.2804 11.5925 11.6606 11.8404Z" fill="url(#paint1_linear_10_426)"/>
<path d="M43.267 22.004C43.5149 20.6406 43.3909 19.0293 42.8952 17.7898C42.1515 15.9306 40.6641 14.4433 38.8049 13.6996C38.8049 12.832 38.681 12.0883 38.3091 11.2207C37.3176 8.74173 35.0865 6.88253 32.3597 6.51069C31.4921 3.65991 28.8892 1.92466 25.9145 2.17255C23.9313 0.189402 20.9566 -0.554278 18.4777 0.437296C16.3706 1.30492 14.7592 3.16412 14.2635 5.39517C12.4043 4.27964 10.0493 3.9078 7.94218 4.77543C5.46324 5.76701 3.72799 8.24594 3.60404 11.0967C1.24905 12.832 0.505374 15.9306 1.74484 18.6575C0.00958656 20.6406 -0.4862 23.6153 0.505374 26.0943C0.753267 26.838 1.24905 27.5816 1.74484 28.2014C0.877214 29.9366 0.753267 32.0437 1.373 33.9029C1.86879 35.2663 2.86036 36.5058 3.97588 37.2495C3.72799 38.6129 3.72799 39.9763 4.22378 41.2158C4.84351 42.8271 6.08298 44.1905 7.81823 45.0581C8.31402 47.0413 9.55349 48.7765 11.4127 49.7681C13.2719 50.7597 15.255 50.8836 17.1142 50.2639C19.3453 51.9991 22.1961 52.371 24.7989 51.3794C27.2779 50.3878 29.1371 48.1568 29.6329 45.43C31.8639 47.1652 34.7147 47.5371 37.3176 46.6694C39.9204 45.6779 41.7796 43.4468 42.2754 40.72C45.7459 39.3566 47.4812 35.1424 46.1178 31.424C45.9938 31.1761 45.8699 30.9282 45.7459 30.5564C46.4896 28.8211 46.4896 26.9619 45.8699 25.3506C45.2501 23.8632 44.3825 22.8717 43.267 22.004ZM43.1431 31.1761C43.3909 31.5479 43.5149 31.7958 43.6388 32.0437C44.1346 33.2832 44.0107 34.7705 43.3909 36.134C42.7712 37.2495 41.9036 37.9932 40.912 38.2411H40.7881C40.2923 38.365 39.9204 38.8608 39.7965 39.3566C39.6725 41.4637 38.3091 43.3229 36.326 44.0666C33.5992 45.1821 30.3765 43.5708 29.261 40.72C28.1455 37.8692 29.6329 34.7705 32.3597 33.655C32.9794 33.4071 33.3513 32.6635 33.1034 32.0437C32.8555 31.424 32.1118 31.0521 31.4921 31.3C29.6329 32.0437 28.0216 33.4071 27.1539 35.2663L20.9566 19.0293C20.5847 18.1617 21.0805 17.2941 21.8242 16.9222C22.4439 16.6743 22.8158 15.9306 22.5679 15.3109C22.32 14.6912 21.5763 14.3193 20.9566 14.5672C20.4608 14.8151 19.965 15.063 19.5932 15.4349L17.1142 8.86567C16.2466 6.51069 17.3621 3.65991 19.5932 2.79228C20.7087 2.2965 22.0721 2.54439 23.3116 3.16412C22.4439 3.78386 21.7003 4.65148 21.2045 5.64306C20.9566 6.26279 21.2045 7.00647 21.8242 7.25437C22.4439 7.50226 23.1876 7.25437 23.4355 6.63463C23.8074 5.76701 24.551 5.14727 25.4187 4.77543C27.1539 4.40359 29.0131 5.14727 29.8808 6.88253C25.9145 7.99805 23.8074 12.4601 25.2947 16.3025C25.5426 16.9222 26.2863 17.2941 26.906 17.0462C27.5258 16.7983 27.8976 16.0546 27.6497 15.4349C26.7821 13.0799 27.8976 10.2291 30.1286 9.36146C32.3597 8.49383 35.0865 9.85725 35.9541 12.2122C36.202 12.9559 36.326 13.6996 36.202 14.4433C36.0781 15.063 36.5739 15.6827 37.1936 15.9306C38.681 16.1785 39.9204 17.2941 40.5402 18.6575C41.4078 21.0125 40.2923 23.8632 38.0612 24.7309C37.4415 24.9788 37.0697 25.7224 37.3176 26.3422C37.5655 26.9619 38.3091 27.3337 38.9289 27.0858C40.2923 26.5901 41.4078 25.5985 42.1515 24.359C42.6473 24.8548 43.0191 25.3506 43.267 26.0943C43.7628 27.3337 43.6388 28.6972 43.0191 29.8127C42.8952 30.3085 42.8952 30.8042 43.1431 31.1761ZM14.8832 18.4096C15.1311 19.0293 15.8748 19.4011 16.4945 19.1533C17.3621 18.7814 18.2298 19.2772 18.6016 20.0209L24.7989 36.2579C22.9397 35.5142 20.8326 35.5142 18.9734 36.2579C18.3537 36.5058 17.9819 37.2495 18.2298 37.8692C18.4777 38.4889 19.2213 38.8608 19.8411 38.6129C22.6918 37.4974 25.7905 38.9847 26.906 41.7116C28.0216 44.5623 26.6581 47.9089 23.9313 49.0244C21.9482 49.7681 19.7171 49.2723 18.2298 47.785C17.8579 47.4131 17.3621 47.2892 16.8663 47.5371H16.7424L16.6185 47.661C15.6269 48.2807 14.1395 48.1568 12.9 47.5371C11.4127 46.7934 10.5451 45.43 10.2972 43.9426C10.1732 43.4468 9.92533 43.075 9.42954 42.951C8.19007 42.5792 7.1985 41.5876 6.70271 40.3482C6.45482 39.7284 6.33087 38.9847 6.45482 38.365C7.69429 38.6129 9.18165 38.6129 10.5451 38.1171C11.1648 37.8692 11.5366 37.1255 11.2887 36.5058C11.0408 35.8861 10.2972 35.5142 9.67743 35.7621C7.44639 36.6297 4.71956 35.2663 3.85194 32.9113C3.35615 31.424 3.4801 29.9366 4.47167 28.6972C4.84351 28.2014 4.71956 27.3337 4.22378 26.9619C3.60404 26.4661 3.10826 25.8464 2.86036 25.1027C1.99273 22.7477 3.10826 19.8969 5.3393 19.0293C7.57034 18.1617 10.2972 19.5251 11.1648 21.8801C11.4127 22.4998 12.1564 22.8717 12.7761 22.6238C13.3958 22.3759 13.7677 21.6322 13.5198 21.0125C11.9085 17.0462 7.32244 15.063 3.72799 16.9222C3.2322 15.187 4.09983 13.3278 5.83508 12.5841C6.70271 12.3362 7.69428 12.3362 8.56191 12.708C8.80981 12.832 9.18165 12.832 9.55349 12.708C9.80138 12.5841 10.0493 12.3362 10.1732 12.0883C10.2972 11.8404 10.2972 11.4686 10.1732 11.0967C10.0493 10.7249 9.80138 10.477 9.55349 10.353C8.56191 9.9812 7.44639 9.7333 6.33087 9.9812C6.70271 8.61778 7.69428 7.62621 8.80981 7.13042C11.0408 6.26279 13.7677 7.62621 14.6353 9.9812L17.1142 16.5504C16.6185 16.5504 15.9987 16.6743 15.5029 16.7983C14.8832 16.9222 14.6353 17.6659 14.8832 18.4096Z" fill="url(#paint2_linear_10_426)"/>
<path d="M12.0325 25.8463C10.2972 25.7224 8.68591 24.6068 8.06618 22.9955C7.81829 22.3758 7.07461 22.0039 6.45487 22.2518C5.83514 22.4997 5.4633 23.2434 5.71119 23.8632C6.95066 26.9618 10.0493 28.821 13.2719 28.3252C13.148 29.3168 12.5283 30.1844 11.6606 30.5563C11.0409 30.8042 10.6691 31.5478 10.917 32.1676C11.1648 32.7873 11.9085 33.1592 12.5283 32.9113C14.7593 32.0436 15.9988 29.8126 15.7509 27.4576C16.8664 26.8379 17.858 25.8463 18.4777 24.6068C18.6017 24.3589 18.6017 23.9871 18.6017 23.6153C18.4777 23.2434 18.2298 22.9955 17.9819 22.8716C17.3622 22.4997 16.6185 22.7476 16.2467 23.3674C15.379 24.9787 13.7677 25.9702 12.0325 25.8463Z" fill="url(#paint3_linear_10_426)"/>
<path d="M14.1396 42.2075C13.5198 42.4554 13.148 43.199 13.3959 43.8188C13.6438 44.4385 14.3875 44.8103 15.0072 44.5624C17.2382 43.6948 19.9651 45.0582 20.8327 47.4132C21.0806 48.033 21.8243 48.4048 22.444 48.1569C23.0637 47.909 23.4356 47.1653 23.1877 46.5456C21.8243 42.7033 17.6101 40.844 14.1396 42.2075Z" fill="url(#paint4_linear_10_426)"/>
<path d="M18.4776 32.2915C15.5029 33.407 13.3958 36.1339 12.9 39.2325C12.9 39.6044 12.9 39.8523 13.1479 40.2241C13.3958 40.472 13.6437 40.7199 14.0155 40.7199C14.2634 40.7199 14.5113 40.7199 14.6353 40.5959C14.7592 40.5959 14.8832 40.472 14.8832 40.472C15.1311 40.2241 15.379 39.9762 15.379 39.6044C15.7508 37.3733 17.2382 35.3902 19.3453 34.6465C19.965 34.3986 20.3368 33.6549 20.0889 33.0352C19.841 32.4155 19.0974 32.0436 18.4776 32.2915Z" fill="url(#paint5_linear_10_426)"/>
<path d="M33.971 24.6069C34.5907 24.359 34.9626 23.6153 34.7147 22.9956C34.4668 22.3759 33.7231 22.004 33.1034 22.2519C32.1118 22.6238 31.1202 22.3759 30.3766 21.7561C33.1034 19.8969 34.2189 16.5504 33.1034 13.4517C32.8555 12.832 32.1118 12.4601 31.4921 12.708C30.8723 12.9559 30.5005 13.6996 30.7484 14.3193C31.616 16.6743 30.5005 19.1533 28.1455 20.1448C27.1539 20.5167 26.0384 20.5167 24.9229 20.1448C24.3032 19.8969 23.5595 20.2688 23.3116 20.8885C23.1876 21.2603 23.1876 21.5082 23.3116 21.8801C23.4355 22.128 23.6834 22.3759 24.0553 22.4998C25.2947 22.9956 26.6582 23.1195 28.0216 22.7477C29.261 24.7309 31.74 25.4745 33.971 24.6069Z" fill="url(#paint6_linear_10_426)"/>
<path d="M39.0528 32.5396C35.4584 33.903 33.7231 38.1172 35.0865 41.8356C35.3344 42.4553 36.0781 42.8271 36.6978 42.5792C37.3176 42.3314 37.6894 41.5877 37.4415 40.9679C36.5739 38.613 37.6894 35.7622 39.9204 34.8945C40.5402 34.6467 40.912 33.903 40.6641 33.2832C40.4162 32.6635 39.6725 32.2917 39.0528 32.5396Z" fill="url(#paint7_linear_10_426)"/>
<path d="M36.4499 31.548C36.6978 31.7959 37.0697 31.9198 37.3175 31.7959C37.4415 31.7959 37.5654 31.7959 37.6894 31.6719C37.9373 31.548 38.0612 31.424 38.1852 31.3001C38.4331 31.0522 38.557 30.6804 38.4331 30.4325C38.4331 30.0606 38.1852 29.8127 37.9373 29.5648C35.4583 27.5817 32.1118 26.962 29.1371 28.0775C28.5173 28.3254 28.1455 29.0691 28.3934 29.6888C28.6413 30.3085 29.385 30.6804 30.0047 30.4325C32.2357 29.6888 34.7147 30.0606 36.4499 31.548Z" fill="url(#paint8_linear_10_426)"/>
<defs>
<linearGradient id="paint0_linear_10_426" x1="19.736" y1="9.53077" x2="22.2671" y2="9.53077" gradientUnits="userSpaceOnUse">
<stop stop-color="#FFC01E"/>
<stop offset="0.0838048" stop-color="#FFBB1B"/>
<stop offset="0.672" stop-color="#FF9C07"/>
<stop offset="1" stop-color="#FF9000"/>
</linearGradient>
<linearGradient id="paint1_linear_10_426" x1="10.8184" y1="12.9626" x2="13.3495" y2="12.9626" gradientUnits="userSpaceOnUse">
<stop stop-color="#FFC01E"/>
<stop offset="0.0838048" stop-color="#FFBB1B"/>
<stop offset="0.672" stop-color="#FF9C07"/>
<stop offset="1" stop-color="#FF9000"/>
</linearGradient>
<linearGradient id="paint2_linear_10_426" x1="-0.11436" y1="26.009" x2="46.5484" y2="26.009" gradientUnits="userSpaceOnUse">
<stop stop-color="#FFC01E"/>
<stop offset="0.0838048" stop-color="#FFBB1B"/>
<stop offset="0.672" stop-color="#FF9C07"/>
<stop offset="1" stop-color="#FF9000"/>
</linearGradient>
<linearGradient id="paint3_linear_10_426" x1="5.64054" y1="27.5693" x2="18.625" y2="27.5693" gradientUnits="userSpaceOnUse">
<stop stop-color="#FFC01E"/>
<stop offset="0.0838048" stop-color="#FFBB1B"/>
<stop offset="0.672" stop-color="#FF9C07"/>
<stop offset="1" stop-color="#FF9000"/>
</linearGradient>
<linearGradient id="paint4_linear_10_426" x1="13.2935" y1="44.9467" x2="23.3369" y2="44.9467" gradientUnits="userSpaceOnUse">
<stop stop-color="#FFC01E"/>
<stop offset="0.0838048" stop-color="#FFBB1B"/>
<stop offset="0.672" stop-color="#FF9C07"/>
<stop offset="1" stop-color="#FF9000"/>
</linearGradient>
<linearGradient id="paint5_linear_10_426" x1="12.8654" y1="36.4629" x2="20.213" y2="36.4629" gradientUnits="userSpaceOnUse">
<stop stop-color="#FFC01E"/>
<stop offset="0.0838048" stop-color="#FFBB1B"/>
<stop offset="0.672" stop-color="#FF9C07"/>
<stop offset="1" stop-color="#FF9000"/>
</linearGradient>
<linearGradient id="paint6_linear_10_426" x1="23.2268" y1="18.7738" x2="34.7909" y2="18.7738" gradientUnits="userSpaceOnUse">
<stop stop-color="#FFC01E"/>
<stop offset="0.0838048" stop-color="#FFBB1B"/>
<stop offset="0.672" stop-color="#FF9C07"/>
<stop offset="1" stop-color="#FF9000"/>
</linearGradient>
<linearGradient id="paint7_linear_10_426" x1="34.6732" y1="37.5711" x2="40.7958" y2="37.5711" gradientUnits="userSpaceOnUse">
<stop stop-color="#FFC01E"/>
<stop offset="0.0838048" stop-color="#FFBB1B"/>
<stop offset="0.672" stop-color="#FF9C07"/>
<stop offset="1" stop-color="#FF9000"/>
</linearGradient>
<linearGradient id="paint8_linear_10_426" x1="28.3843" y1="29.7027" x2="38.5139" y2="29.7027" gradientUnits="userSpaceOnUse">
<stop stop-color="#FFC01E"/>
<stop offset="0.0838048" stop-color="#FFBB1B"/>
<stop offset="0.672" stop-color="#FF9C07"/>
<stop offset="1" stop-color="#FF9000"/>
</linearGradient>
</defs>
</svg>
