<svg width="47" height="42" viewBox="0 0 47 42" fill="none" xmlns="http://www.w3.org/2000/svg">
<path d="M27.6291 12.1302C23.1089 9.928 17.6614 11.7825 15.4592 16.3027C13.257 20.823 15.1115 26.2704 19.6318 28.4726C24.152 30.6748 29.5995 28.8203 31.8017 24.3001C34.0038 19.8957 32.1494 14.3323 27.6291 12.1302ZM20.4431 26.7341C16.966 24.9955 15.4592 20.7071 17.1978 17.2299C18.9363 13.7528 23.2248 12.2461 26.7019 13.9846C30.179 15.7232 31.6858 20.0116 29.9472 23.4888C28.3245 27.0818 24.0361 28.4726 20.4431 26.7341Z" fill="url(#paint0_linear_10_444)"/>
<path d="M25.7746 16.071C23.3406 14.9119 20.443 15.9551 19.284 18.2731C18.1249 20.5912 19.1681 23.6047 21.4862 24.7638C23.8042 25.9228 26.8177 24.8797 27.9768 22.5616C29.1358 20.2435 28.2086 17.23 25.7746 16.071ZM26.1223 21.6344C25.4269 23.0252 23.8042 23.6047 22.2975 22.9093C20.9066 22.2139 20.3271 20.5912 21.0225 19.0845C21.718 17.6936 23.3406 17.1141 24.8474 17.8095C26.2382 18.5049 26.8177 20.2435 26.1223 21.6344Z" fill="url(#paint1_linear_10_444)"/>
<path d="M14.4161 1.11927C12.098 -0.0397719 9.43219 1.00336 8.27315 3.20554L0.623492 18.7367C-0.419643 20.8229 -0.303739 24.8796 2.13024 26.1545L32.2653 40.8743C34.6992 42.0333 37.9445 39.7153 38.9877 37.5131L46.5214 21.982C47.6805 19.6639 46.6373 16.9981 44.4352 15.8391L39.6831 13.521V8.0735C39.6831 7.72579 39.4513 7.37808 39.1036 7.14627L24.4997 0.076132C24.152 -0.0397719 23.8043 -0.0397719 23.4566 0.192036L19.1681 3.43735L14.4161 1.11927ZM24.152 2.1624L37.5968 8.76892V14.2164C37.5968 14.3323 37.5968 14.4482 37.5968 14.5641C37.7127 14.68 37.7127 14.7959 37.7127 14.9118C37.7127 14.9118 37.7127 14.9118 37.8286 15.0277C37.9445 15.1436 38.0605 15.1436 38.0605 15.2595L43.392 17.8094C44.667 18.3889 45.2465 20.0116 44.5511 21.2865L37.0173 36.7018C36.3219 38.0926 34.1197 39.5994 32.9607 39.1357L3.05747 24.3C1.89843 23.7205 1.78253 21.0547 2.47795 19.6639L10.0117 4.13277C10.5912 2.85783 12.2139 2.27831 13.4888 2.97373L31.4539 11.7824C31.9175 12.0142 32.613 11.7824 32.8448 11.3188C33.0766 10.8552 32.8448 10.1598 32.3812 9.92796L21.1385 4.48048L24.152 2.1624Z" fill="url(#paint2_linear_10_444)"/>
<defs>
<linearGradient id="paint0_linear_10_444" x1="14.4864" y1="20.3694" x2="32.7626" y2="20.3694" gradientUnits="userSpaceOnUse">
<stop stop-color="#FFC01E"/>
<stop offset="0.0838048" stop-color="#FFBB1B"/>
<stop offset="0.672" stop-color="#FF9C07"/>
<stop offset="1" stop-color="#FF9000"/>
</linearGradient>
<linearGradient id="paint1_linear_10_444" x1="18.7785" y1="20.3697" x2="28.4703" y2="20.3697" gradientUnits="userSpaceOnUse">
<stop stop-color="#FFC01E"/>
<stop offset="0.0838048" stop-color="#FFBB1B"/>
<stop offset="0.672" stop-color="#FF9C07"/>
<stop offset="1" stop-color="#FF9000"/>
</linearGradient>
<linearGradient id="paint2_linear_10_444" x1="0.0439722" y1="20.5408" x2="47.0399" y2="20.5408" gradientUnits="userSpaceOnUse">
<stop stop-color="#FFC01E"/>
<stop offset="0.0838048" stop-color="#FFBB1B"/>
<stop offset="0.672" stop-color="#FF9C07"/>
<stop offset="1" stop-color="#FF9000"/>
</linearGradient>
</defs>
</svg>
