<svg width="72" height="65" viewBox="0 0 72 65" fill="none" xmlns="http://www.w3.org/2000/svg">
<path d="M43.3046 60.2422C35.9867 63.0402 28.0231 62.6098 20.7052 59.3813C13.6026 56.1528 8.22177 50.1263 5.42375 42.8084C0.258172 28.8183 6.71514 12.6759 20.0595 6.21888C27.1622 2.77517 35.341 2.12947 42.8742 4.92749C50.4073 7.51028 56.4338 12.8911 59.6623 20.209C60.0928 21.0699 60.9537 21.2851 61.5994 21.0699C62.0298 20.8547 62.2451 20.6394 62.4603 20.209C62.6755 19.7785 62.6755 19.3481 62.4603 18.9176C58.5861 10.7388 51.4835 4.49703 42.8742 1.699C34.0496 -1.31425 24.7947 -0.238086 16.8311 4.28179C3.91712 11.5997 -2.32462 27.3116 1.7648 41.517C4.34759 50.3415 10.3741 57.4442 18.5529 61.5336C26.5165 65.623 35.9867 66.0535 44.3808 63.0402C44.8113 62.825 45.0265 62.6098 45.2417 62.1793C45.457 61.7488 45.457 61.3184 45.2417 60.8879C45.0265 60.2422 44.1656 59.8117 43.3046 60.2422Z" fill="url(#paint0_linear_10_1468)"/>
<path d="M66.3345 31.6163L63.3212 32.9077C63.106 32.6924 62.8907 32.4772 62.6755 32.262L63.9669 29.2487C64.3974 28.3878 63.9669 27.5269 63.106 27.0964L58.1556 25.1593C57.2947 24.9441 56.4338 25.1593 56.0033 26.0202L54.7119 29.0335C54.4967 29.0335 54.0662 29.0335 53.6358 29.0335L52.5596 25.805C52.1291 24.9441 51.2682 24.7289 50.4073 24.9441L45.4569 27.0964C44.596 27.5269 44.1655 28.3878 44.596 29.2487L45.8874 32.262C45.6722 32.4772 45.4569 32.6924 45.2417 32.9077L42.2284 31.6163C41.3675 31.4011 40.5066 31.6163 40.0761 32.4772L38.139 37.4276C37.7086 38.2885 38.139 39.1494 39 39.5799L42.0132 40.8713C42.0132 41.3017 42.0132 41.517 42.0132 41.9474L39 43.0236C38.139 43.4541 37.9238 44.315 38.139 45.1759L40.2914 50.1263C40.7218 50.9872 41.5827 51.2024 42.4437 50.9872L45.4569 49.6958C45.6722 49.911 45.8874 50.1263 46.1026 50.3415L44.8112 53.3547C44.3808 54.2157 44.8112 55.0766 45.6722 55.5071L50.6225 57.4442C51.4834 57.6594 52.3444 57.4442 52.7748 56.5832L54.0662 53.57C54.4967 53.57 54.7119 53.57 55.1424 53.57L56.4338 56.5832C56.8642 57.4442 57.7252 57.6594 58.5861 57.4442L63.5364 55.2918C64.3974 54.8614 64.6126 54.0005 64.3974 53.1395L63.106 50.1263C63.3212 49.911 63.5364 49.6958 63.7517 49.4806L66.7649 50.772C67.6259 50.9872 68.4868 50.772 68.9173 49.911L70.8543 44.9607C71.2848 44.0998 70.8543 43.2388 69.9934 42.8084L66.9802 41.517C66.9802 41.3017 66.9802 40.8713 66.9802 40.4408L69.9934 39.1494C70.8543 38.719 71.0696 37.858 70.8543 36.9971L68.702 32.0468C68.0563 31.6163 66.9802 31.1858 66.3345 31.6163ZM63.3212 40.0103C63.5364 40.8713 63.5364 41.7322 63.3212 42.5931C63.3212 43.2388 63.5364 44.0998 64.1821 44.315L66.7649 45.3912L65.904 47.5435L63.3212 46.4673C62.6755 46.2521 61.8146 46.4673 61.3841 46.8978C60.9537 47.5435 60.308 48.1892 59.6623 48.6196C59.0166 49.0501 58.8013 49.911 59.2318 50.5567L60.308 53.1395L58.1556 54.0004L57.0795 51.4177C56.8642 50.772 56.0033 50.3415 55.3576 50.5567C54.4967 50.772 53.6358 50.772 52.7748 50.5567C52.1291 50.5567 51.2682 50.772 51.053 51.6329L49.9768 54.2157L47.8245 53.3547L48.9006 50.772C49.1159 50.1263 48.9006 49.2653 48.4702 48.8349C47.8245 48.4044 47.1788 47.7587 46.7483 47.113C46.3179 46.4673 45.4569 46.2521 44.8112 46.6826L42.4437 47.3282L41.5827 45.1759L44.1655 44.0998C44.8112 43.8845 45.2417 43.0236 45.0265 42.3779C44.8112 41.517 44.8112 40.656 45.0265 39.7951C45.0265 39.1494 44.8112 38.2885 43.9503 38.0733L41.3675 36.9971L42.2284 34.8448L44.8112 35.9209C45.4569 36.1362 46.3179 35.9209 46.7483 35.4905C47.1788 34.8448 47.8245 34.1991 48.4702 33.7686C49.1159 33.3381 49.3311 32.4772 48.9006 31.8315L47.8245 29.2487L49.9768 28.3878L51.053 30.9706C51.2682 31.6163 52.1291 32.0468 52.7748 31.8315C53.6358 31.6163 54.4967 31.6163 55.3576 31.8315C56.0033 31.8315 56.8642 31.6163 57.0795 30.9706L58.1556 28.3878L60.308 29.2487L59.2318 31.8315C59.0166 32.4772 59.2318 33.3381 59.6623 33.7686C60.308 34.1991 60.9537 34.8448 61.3841 35.4905C61.8146 36.1362 62.6755 36.3514 63.3212 35.9209L65.904 34.8448L66.7649 36.9971L64.1821 38.0733C63.5364 38.5037 63.3212 39.1494 63.3212 40.0103Z" fill="url(#paint1_linear_10_1468)"/>
<path d="M52.1292 36.1361C49.3312 37.4275 47.8246 40.656 49.116 43.454C50.4073 46.252 53.6358 47.7586 56.4338 46.4672C59.2319 45.1759 60.7385 41.9474 59.4471 39.1493C58.1557 36.1361 54.9272 34.8447 52.1292 36.1361ZM56.4338 40.2255C56.8643 41.5169 56.4338 43.0235 55.1425 43.454C53.8511 43.8845 52.3444 43.454 51.914 42.1626C51.4835 40.8712 51.914 39.3646 53.2054 38.9341C54.4968 38.5037 56.0034 38.9341 56.4338 40.2255Z" fill="url(#paint2_linear_10_1468)"/>
<path d="M24.5794 7.94076C24.149 7.07983 23.288 6.86459 22.4271 7.07983C21.5662 7.51029 21.351 8.37122 21.5662 9.23215L21.9967 10.5235C22.4271 11.3845 23.288 11.5997 24.149 11.3845C25.0099 10.954 25.2251 10.0931 25.0099 9.23215L24.5794 7.94076Z" fill="url(#paint3_linear_10_1468)"/>
<path d="M14.033 19.1329C14.2483 19.1329 14.2483 19.1329 14.4635 18.9176C14.6787 18.9176 14.894 18.7024 15.1092 18.4872C15.3244 18.0567 15.3244 17.6262 15.3244 17.1958C15.3244 16.7653 15.1092 16.3349 14.6787 16.1196L13.6026 15.4739C13.3873 15.0435 12.9569 15.0435 12.5264 15.0435C12.0959 15.0435 11.6655 15.2587 11.4502 15.6892C11.0198 16.3349 11.0198 17.411 11.6655 17.8415L12.7416 18.7024C13.1721 18.9176 13.6026 19.1329 14.033 19.1329Z" fill="url(#paint4_linear_10_1468)"/>
<path d="M7.5761 30.3249L8.86749 30.5402C9.08273 30.5402 9.51319 30.5402 9.72842 30.3249C9.94366 30.3249 9.94366 30.1097 10.1589 30.1097C10.5894 29.8945 10.8046 29.464 10.8046 29.0335C10.8046 28.6031 10.8046 28.1726 10.5894 27.9574C10.3741 27.5269 9.94366 27.3117 9.51319 27.3117L8.2218 27.0964C7.79133 27.0964 7.36087 27.0964 7.14564 27.3117C6.71517 27.5269 6.49994 27.9574 6.49994 28.3878C6.49994 28.8183 6.49994 29.2488 6.71517 29.464C6.71517 30.1097 7.14564 30.3249 7.5761 30.3249Z" fill="url(#paint5_linear_10_1468)"/>
<path d="M8.86745 40.2256C8.00652 40.6561 7.79129 41.517 8.00652 42.3779C8.43699 43.2389 9.29792 43.4541 10.1588 43.2389L11.4502 42.8084C12.3112 42.3779 12.5264 41.517 12.3112 40.6561C11.8807 39.7952 11.0198 39.5799 10.1588 39.7952L8.86745 40.2256Z" fill="url(#paint6_linear_10_1468)"/>
<path d="M18.1225 53.3545C18.3377 53.3545 18.5529 53.1392 18.7682 52.924L19.6291 51.8478C20.0596 51.2021 20.0596 50.126 19.4139 49.6955C18.7682 49.2651 17.692 49.2651 17.2616 49.9107L16.4006 50.9869C15.9702 51.6326 15.9702 52.7088 16.6159 53.1392C17.0463 53.5697 17.692 53.5697 18.1225 53.3545Z" fill="url(#paint7_linear_10_1468)"/>
<path d="M29.3145 58.5201C29.5298 58.5201 29.9602 58.5201 30.1755 58.3049C30.6059 58.0897 31.0364 57.6592 31.0364 57.0135L31.2516 55.7221C31.4668 54.8612 30.8212 54.0002 29.9602 54.0002C29.5298 54.0002 29.0993 54.0002 28.8841 54.2155C28.4536 54.4307 28.2384 54.8612 28.2384 55.2916L28.0231 56.583C28.0231 57.0135 28.0231 57.444 28.2384 57.6592C28.6688 58.0897 29.0993 58.3049 29.3145 58.5201Z" fill="url(#paint8_linear_10_1468)"/>
<path d="M47.8245 10.3081C47.3941 10.3081 46.9636 10.5233 46.7484 10.9538L45.8874 12.03C45.6722 12.2452 45.6722 12.6757 45.6722 13.1061C45.6722 13.5366 45.8874 13.9671 46.3179 14.1823C46.7484 14.3975 46.9636 14.6128 47.3941 14.3975C47.6093 14.3975 47.6093 14.3975 47.8245 14.1823C48.0398 14.1823 48.255 13.9671 48.4702 13.7518L49.3312 12.6757C49.5464 12.2452 49.7616 12.03 49.5464 11.5995C49.5464 11.169 49.3312 10.7386 48.9007 10.5233C48.6855 10.3081 48.255 10.3081 47.8245 10.3081Z" fill="url(#paint9_linear_10_1468)"/>
<path d="M34.9106 5.57329C34.4801 5.78852 34.2649 6.21898 34.2649 6.64945L34.0496 7.94084C33.8344 8.80177 34.4801 9.6627 35.341 9.6627C35.5563 9.6627 35.9867 9.6627 36.202 9.44747C36.4172 9.44747 36.4172 9.23224 36.6324 9.23224C37.0629 9.017 37.2781 8.58654 37.2781 8.15607L37.4934 6.86468C37.7086 6.00375 37.0629 5.14282 36.202 5.14282C35.7715 5.35805 35.341 5.35805 34.9106 5.57329Z" fill="url(#paint10_linear_10_1468)"/>
<path d="M26.086 19.7786L31.2516 32.0469C31.4668 32.2621 31.4668 32.6926 31.2516 32.9078L28.6688 39.3648C28.4536 40.0105 28.4536 40.4409 28.4536 40.8714C28.6688 41.3019 28.884 41.5171 29.3145 41.7323C29.745 41.9476 30.1754 41.9476 30.6059 41.7323C31.0364 41.5171 31.2516 41.3019 31.4668 40.8714L34.4801 33.3383C34.6953 32.9078 34.6953 32.4773 34.4801 32.0469L28.884 18.7025C28.4536 17.8415 27.5927 17.6263 26.7317 17.8415C26.086 18.0568 25.6556 19.1329 26.086 19.7786Z" fill="url(#paint11_linear_10_1468)"/>
<defs>
<linearGradient id="paint0_linear_10_1468" x1="8.86731" y1="54.4885" x2="55.3261" y2="8.74682" gradientUnits="userSpaceOnUse">
<stop stop-color="#FFC01E"/>
<stop offset="0.0838048" stop-color="#FFBB1B"/>
<stop offset="0.672" stop-color="#FF9C07"/>
<stop offset="1" stop-color="#FF9000"/>
</linearGradient>
<linearGradient id="paint1_linear_10_1468" x1="42.6007" y1="52.7166" x2="65.9071" y2="29.7698" gradientUnits="userSpaceOnUse">
<stop stop-color="#FFC01E"/>
<stop offset="0.0838048" stop-color="#FFBB1B"/>
<stop offset="0.672" stop-color="#FF9C07"/>
<stop offset="1" stop-color="#FF9000"/>
</linearGradient>
<linearGradient id="paint2_linear_10_1468" x1="50.2446" y1="45.19" x2="58.2618" y2="37.2966" gradientUnits="userSpaceOnUse">
<stop stop-color="#FFC01E"/>
<stop offset="0.0838048" stop-color="#FFBB1B"/>
<stop offset="0.672" stop-color="#FF9C07"/>
<stop offset="1" stop-color="#FF9000"/>
</linearGradient>
<linearGradient id="paint3_linear_10_1468" x1="21.9802" y1="10.5638" x2="24.5894" y2="7.99484" gradientUnits="userSpaceOnUse">
<stop stop-color="#FFC01E"/>
<stop offset="0.0838048" stop-color="#FFBB1B"/>
<stop offset="0.672" stop-color="#FF9C07"/>
<stop offset="1" stop-color="#FF9000"/>
</linearGradient>
<linearGradient id="paint4_linear_10_1468" x1="12.0565" y1="18.2321" x2="14.4462" y2="15.8792" gradientUnits="userSpaceOnUse">
<stop stop-color="#FFC01E"/>
<stop offset="0.0838048" stop-color="#FFBB1B"/>
<stop offset="0.672" stop-color="#FF9C07"/>
<stop offset="1" stop-color="#FF9000"/>
</linearGradient>
<linearGradient id="paint5_linear_10_1468" x1="7.02753" y1="30.2076" x2="9.87385" y2="27.4052" gradientUnits="userSpaceOnUse">
<stop stop-color="#FFC01E"/>
<stop offset="0.0838048" stop-color="#FFBB1B"/>
<stop offset="0.672" stop-color="#FF9C07"/>
<stop offset="1" stop-color="#FF9000"/>
</linearGradient>
<linearGradient id="paint6_linear_10_1468" x1="8.59617" y1="42.9311" x2="11.7411" y2="39.8347" gradientUnits="userSpaceOnUse">
<stop stop-color="#FFC01E"/>
<stop offset="0.0838048" stop-color="#FFBB1B"/>
<stop offset="0.672" stop-color="#FF9C07"/>
<stop offset="1" stop-color="#FF9000"/>
</linearGradient>
<linearGradient id="paint7_linear_10_1468" x1="16.3422" y1="52.9927" x2="19.5461" y2="49.8383" gradientUnits="userSpaceOnUse">
<stop stop-color="#FFC01E"/>
<stop offset="0.0838048" stop-color="#FFBB1B"/>
<stop offset="0.672" stop-color="#FF9C07"/>
<stop offset="1" stop-color="#FF9000"/>
</linearGradient>
<linearGradient id="paint8_linear_10_1468" x1="28.1912" y1="57.6963" x2="31.1969" y2="54.737" gradientUnits="userSpaceOnUse">
<stop stop-color="#FFC01E"/>
<stop offset="0.0838048" stop-color="#FFBB1B"/>
<stop offset="0.672" stop-color="#FF9C07"/>
<stop offset="1" stop-color="#FF9000"/>
</linearGradient>
<linearGradient id="paint9_linear_10_1468" x1="46.0107" y1="13.9397" x2="49.2145" y2="10.7853" gradientUnits="userSpaceOnUse">
<stop stop-color="#FFC01E"/>
<stop offset="0.0838048" stop-color="#FFBB1B"/>
<stop offset="0.672" stop-color="#FF9C07"/>
<stop offset="1" stop-color="#FF9000"/>
</linearGradient>
<linearGradient id="paint10_linear_10_1468" x1="34.3589" y1="9.04165" x2="37.3644" y2="6.08251" gradientUnits="userSpaceOnUse">
<stop stop-color="#FFC01E"/>
<stop offset="0.0838048" stop-color="#FFBB1B"/>
<stop offset="0.672" stop-color="#FF9C07"/>
<stop offset="1" stop-color="#FF9000"/>
</linearGradient>
<linearGradient id="paint11_linear_10_1468" x1="22.9962" y1="35.33" x2="34.4413" y2="24.0615" gradientUnits="userSpaceOnUse">
<stop stop-color="#FFC01E"/>
<stop offset="0.0838048" stop-color="#FFBB1B"/>
<stop offset="0.672" stop-color="#FF9C07"/>
<stop offset="1" stop-color="#FF9000"/>
</linearGradient>
</defs>
</svg>
