<svg width="78" height="54" viewBox="0 0 78 54" fill="none" xmlns="http://www.w3.org/2000/svg">
<path d="M20.3101 23.325C14.3031 21.4478 9.61005 25.9531 9.42233 26.1408C8.85917 26.5163 8.48373 27.4549 9.04689 28.018C9.42233 28.5812 10.3609 28.9566 10.9241 28.3935C10.9241 28.3935 11.1118 28.2058 11.2995 28.018C13.5522 25.9531 16.5557 25.2022 19.5592 25.9531C20.3101 26.1408 21.061 25.7654 21.2487 25.0145C21.4364 24.2636 21.061 23.5128 20.3101 23.325Z" fill="url(#paint0_linear_10_1513)"/>
<path d="M37.3928 19.0076C31.3857 17.1304 26.6927 21.448 26.505 21.8234C25.9419 22.3866 25.9419 23.1375 26.505 23.7006C27.0682 24.2638 27.8191 24.2638 28.3822 23.7006C30.6349 21.6357 33.6384 20.8848 36.6419 21.6357C37.3928 21.8234 38.1437 21.448 38.3314 20.6971C38.5191 19.9462 38.1437 19.1954 37.3928 19.0076Z" fill="url(#paint1_linear_10_1513)"/>
<path d="M37.0172 34.5885C36.8295 34.2131 36.6418 34.0253 36.4541 33.8376C36.0786 33.6499 35.7032 33.6499 35.3278 33.6499L18.2452 37.9675C17.4943 37.9675 16.9312 38.7183 17.1189 39.4692C18.0575 43.2236 21.8119 45.8517 26.3172 45.8517C27.2558 45.8517 28.1944 45.664 29.3207 45.4763C34.5769 44.1622 38.1436 39.0938 37.0172 34.5885ZM28.5698 42.8482C27.819 43.0359 27.0681 43.0359 26.3172 43.0359C24.0645 43.2236 21.8119 42.0973 20.4979 40.0324L34.5769 36.4657C34.2014 39.2815 31.9488 41.9096 28.5698 42.8482Z" fill="url(#paint2_linear_10_1513)"/>
<path d="M76.8139 10.3724L40.0208 0.0478375C39.2699 -0.139883 38.519 0.235558 38.3313 0.986438L37.5804 3.23908L1.1627 12.4374C0.411823 12.6251 -0.151337 13.376 0.0363829 14.1269L6.23115 38.5305C9.04695 49.4182 20.1224 56.1762 31.0102 53.3604C34.5769 52.4218 37.7681 50.7323 40.3962 48.1042C49.9699 54.1113 62.7349 51.1077 68.742 41.534C69.8683 39.8445 70.6192 37.9673 71.1823 36.0901L77.9403 11.8742C78.128 11.311 77.5648 10.5602 76.8139 10.3724ZM30.4471 50.7323C21.061 53.1726 11.2996 47.541 9.04695 37.9673L3.03991 14.8777L37.5804 6.05488L43.3997 29.1445C45.8401 38.7182 40.0208 48.2919 30.4471 50.7323ZM68.5543 35.527C65.9262 44.913 56.1647 50.5446 46.7787 47.9165C45.2769 47.541 43.7752 46.9779 42.4611 46.0393C43.7752 44.3498 44.9015 42.2849 45.6524 40.22L57.1033 43.4112C57.291 43.4112 57.291 43.4112 57.4788 43.4112C58.0419 43.4112 58.6051 43.0358 58.7928 42.4726C60.1068 37.7796 56.7279 32.8989 51.284 31.3971C49.7822 31.0217 48.0927 30.8339 46.591 31.0217C46.4033 30.0831 46.4033 29.3322 46.2155 28.3936L43.9629 19.383C45.4647 19.9462 46.9664 20.3216 48.4682 20.3216C49.4068 20.3216 50.3454 20.1339 51.284 19.9462C52.0349 19.7585 52.4103 19.0076 52.2226 18.2567C52.0349 17.5058 51.284 17.1304 50.5331 17.3181C47.905 17.8813 45.0892 17.3181 43.0243 15.6286L40.2085 4.92856L40.7717 3.05136L74.9367 12.4374L68.5543 35.527ZM46.2155 37.5919C46.4033 36.2778 46.591 35.1515 46.591 33.8375C47.905 33.6497 49.2191 33.6497 50.3454 34.0252C53.7243 34.9638 55.977 37.5919 56.1647 40.4077L46.2155 37.5919Z" fill="url(#paint3_linear_10_1513)"/>
<path d="M68.9297 23.1373C68.742 22.3864 67.9911 22.011 67.2402 22.1987C64.2367 22.7619 61.2331 22.011 59.1682 19.9461C58.6051 19.3829 57.6665 19.3829 57.291 19.9461C56.7279 20.5092 56.7279 21.4478 57.291 21.8233C59.5437 23.8882 62.3595 25.0145 65.363 25.2022C66.3016 25.2022 67.2402 25.0145 68.1788 24.8268C68.742 24.6391 69.3051 23.8882 68.9297 23.1373Z" fill="url(#paint4_linear_10_1513)"/>
<defs>
<linearGradient id="paint0_linear_10_1513" x1="8.73471" y1="25.7898" x2="21.2596" y2="25.7898" gradientUnits="userSpaceOnUse">
<stop stop-color="#FFC01E"/>
<stop offset="0.0838048" stop-color="#FFBB1B"/>
<stop offset="0.672" stop-color="#FF9C07"/>
<stop offset="1" stop-color="#FF9000"/>
</linearGradient>
<linearGradient id="paint1_linear_10_1513" x1="26.05" y1="21.3716" x2="38.3612" y2="21.3716" gradientUnits="userSpaceOnUse">
<stop stop-color="#FFC01E"/>
<stop offset="0.0838048" stop-color="#FFBB1B"/>
<stop offset="0.672" stop-color="#FF9C07"/>
<stop offset="1" stop-color="#FF9000"/>
</linearGradient>
<linearGradient id="paint2_linear_10_1513" x1="17.108" y1="39.6735" x2="37.1682" y2="39.6735" gradientUnits="userSpaceOnUse">
<stop stop-color="#FFC01E"/>
<stop offset="0.0838048" stop-color="#FFBB1B"/>
<stop offset="0.672" stop-color="#FF9C07"/>
<stop offset="1" stop-color="#FF9000"/>
</linearGradient>
<linearGradient id="paint3_linear_10_1513" x1="0.0363829" y1="27.0745" x2="77.886" y2="27.0745" gradientUnits="userSpaceOnUse">
<stop stop-color="#FFC01E"/>
<stop offset="0.0838048" stop-color="#FFBB1B"/>
<stop offset="0.672" stop-color="#FF9C07"/>
<stop offset="1" stop-color="#FF9000"/>
</linearGradient>
<linearGradient id="paint4_linear_10_1513" x1="56.8093" y1="22.282" x2="69.0708" y2="22.282" gradientUnits="userSpaceOnUse">
<stop stop-color="#FFC01E"/>
<stop offset="0.0838048" stop-color="#FFBB1B"/>
<stop offset="0.672" stop-color="#FF9C07"/>
<stop offset="1" stop-color="#FF9000"/>
</linearGradient>
</defs>
</svg>
