<svg width="74" height="70" viewBox="0 0 74 70" fill="none" xmlns="http://www.w3.org/2000/svg">
<path d="M18.6839 7.29407C15.7361 6.24669 12.615 7.81776 11.748 10.7853L0.303806 45.8726C-0.736574 48.8402 0.997392 51.9823 3.94514 53.0297L54.2302 69.6133C57.1779 70.6607 60.2991 68.915 61.3394 65.9474L72.7836 30.8602C73.824 27.8926 72.09 24.7504 69.1423 23.7031L47.4677 16.7205L64.8074 7.99233C65.501 7.6432 65.8477 6.59582 65.5009 5.89756C64.9808 5.02474 64.1138 4.85018 63.2468 5.19931L44.1732 14.9749L37.0639 0.835219C36.7171 0.136964 35.6767 -0.212163 34.9831 0.136964C34.6363 0.311528 34.2896 0.660655 34.2896 1.00978C34.1162 1.35891 34.1162 1.8826 34.4629 2.23173L40.5318 14.4512L18.6839 7.29407ZM68.1019 26.8452C69.4891 27.3689 70.1827 28.7654 69.6625 30.1619L58.2183 65.2492C57.6981 66.6457 56.3109 67.3439 54.9238 66.8203L4.63872 50.2367C3.25155 49.713 2.55796 48.3165 3.07815 46.92L14.5223 11.8327C15.0425 10.4362 16.4297 9.73796 17.8169 10.0871L68.1019 26.8452Z" fill="url(#paint0_linear_10_1461)"/>
<path d="M51.109 26.4963L20.071 16.3716C19.204 16.0224 18.337 16.5461 18.1636 17.4189L9.32042 44.6509C8.97363 45.5237 9.49381 46.3965 10.3608 46.5711L41.3988 56.8703C42.2658 57.2194 43.1328 56.6958 43.3062 55.8229L51.976 28.4165C52.3228 27.7182 51.8026 26.8454 51.109 26.4963ZM32.9024 50.7606L20.2444 46.5711L20.4178 46.0474C21.6316 42.5561 25.2729 40.6359 28.7408 41.8579C32.2088 43.0798 34.1161 46.7456 32.9024 50.2369V50.7606ZM27.0069 33.1297C27.8739 30.6858 30.4748 29.4638 32.729 30.1621C35.1565 31.0349 36.3703 33.6534 35.6767 35.9227C34.8097 38.3666 32.2088 39.5885 29.9546 38.8903C27.5271 38.192 26.1399 35.5736 27.0069 33.1297ZM40.7052 53.3791L35.8501 51.808L36.0235 51.2843C37.0639 48.1421 36.3703 44.6509 34.2895 42.207L33.9427 41.8579L34.2895 41.6833C36.1969 40.8105 37.5841 39.0648 38.2777 37.1446C39.6648 33.1297 37.4107 28.7656 33.4226 27.3691C29.4344 25.9726 25.0995 28.2419 23.7123 32.2569C23.0188 34.1771 23.1922 36.4464 24.2325 38.3666L24.4059 38.7157L23.8857 38.8903C20.7646 39.7631 18.1636 42.207 17.1233 45.3491L16.9499 45.8728L12.0948 44.3017L20.071 19.8628L48.1613 29.1147L40.7052 53.3791Z" fill="url(#paint1_linear_10_1461)"/>
<path d="M60.1257 31.7329C57.178 30.6855 54.0568 32.4311 53.0165 35.3987C51.9761 38.3663 53.71 41.5084 56.6578 42.5558C59.6055 43.6032 62.7267 41.8575 63.767 38.89C64.8074 35.9224 63.0735 32.6057 60.1257 31.7329ZM57.5248 39.5882C56.1376 39.0645 55.444 37.668 55.9642 36.2715C56.4844 34.875 57.8716 34.1767 59.2587 34.7004C60.6459 35.2241 61.3395 36.6206 60.8193 38.0171C60.2991 39.2391 58.9119 39.9373 57.5248 39.5882Z" fill="url(#paint2_linear_10_1461)"/>
<path d="M57.0046 47.9673L53.1898 46.7453C52.3228 46.3962 51.4559 46.9199 51.2825 47.7927C50.9357 48.6655 51.4559 49.5384 52.3228 49.7129L56.1376 50.9349C57.0046 51.284 57.8715 50.7603 58.0449 49.8875C58.2183 49.0147 57.6981 48.1419 57.0046 47.9673Z" fill="url(#paint3_linear_10_1461)"/>
<path d="M54.4036 55.6482L50.5889 54.4263C49.7219 54.0771 48.8549 54.6008 48.6815 55.4736C48.3347 56.3464 48.8549 57.2193 49.7219 57.3938L53.5366 58.6158C54.4036 58.9649 55.2706 58.4412 55.444 57.5684C55.6174 56.8701 55.2706 55.9973 54.4036 55.6482Z" fill="url(#paint4_linear_10_1461)"/>
<defs>
<linearGradient id="paint0_linear_10_1461" x1="13.5208" y1="8.1416" x2="66.3863" y2="61.8936" gradientUnits="userSpaceOnUse">
<stop stop-color="#FFC01E"/>
<stop offset="0.0838048" stop-color="#FFBB1B"/>
<stop offset="0.672" stop-color="#FF9C07"/>
<stop offset="1" stop-color="#FF9000"/>
</linearGradient>
<linearGradient id="paint1_linear_10_1461" x1="14.8653" y1="20.2893" x2="46.6319" y2="52.5886" gradientUnits="userSpaceOnUse">
<stop stop-color="#FFC01E"/>
<stop offset="0.0838048" stop-color="#FFBB1B"/>
<stop offset="0.672" stop-color="#FF9C07"/>
<stop offset="1" stop-color="#FF9000"/>
</linearGradient>
<linearGradient id="paint2_linear_10_1461" x1="54.4347" y1="33.0301" x2="62.3202" y2="41.0478" gradientUnits="userSpaceOnUse">
<stop stop-color="#FFC01E"/>
<stop offset="0.0838048" stop-color="#FFBB1B"/>
<stop offset="0.672" stop-color="#FF9C07"/>
<stop offset="1" stop-color="#FF9000"/>
</linearGradient>
<linearGradient id="paint3_linear_10_1461" x1="52.2075" y1="46.3577" x2="56.9019" y2="51.1308" gradientUnits="userSpaceOnUse">
<stop stop-color="#FFC01E"/>
<stop offset="0.0838048" stop-color="#FFBB1B"/>
<stop offset="0.672" stop-color="#FF9C07"/>
<stop offset="1" stop-color="#FF9000"/>
</linearGradient>
<linearGradient id="paint4_linear_10_1461" x1="49.6658" y1="54.1542" x2="54.36" y2="58.9272" gradientUnits="userSpaceOnUse">
<stop stop-color="#FFC01E"/>
<stop offset="0.0838048" stop-color="#FFBB1B"/>
<stop offset="0.672" stop-color="#FF9C07"/>
<stop offset="1" stop-color="#FF9000"/>
</linearGradient>
</defs>
</svg>
