<svg width="59" height="36" viewBox="0 0 59 36" fill="none" xmlns="http://www.w3.org/2000/svg">
<path d="M33.752 30.371L33.9021 30.5216V30.6723C33.9021 32.9317 35.4034 34.8898 37.5052 35.3417C38.7062 35.643 39.9072 35.3417 40.9581 34.7392C42.009 34.1367 42.7596 33.0823 42.9098 31.8773L48.4645 5.51745C48.7647 4.31243 48.4645 3.10741 47.864 2.05302C47.1133 0.998626 46.2126 0.245488 45.0116 0.0948605C42.9098 -0.357022 40.6579 0.847999 39.7571 2.80616V2.95678L39.4568 3.10741C33.0014 5.51745 25.9454 6.11997 19.0395 4.61369L7.02937 2.05302C5.67822 1.90239 4.4772 2.05302 3.42631 2.80616C2.37542 3.5593 1.77491 4.46306 1.47466 5.66808L0.123514 12.2957C-0.476995 14.8564 1.1744 17.2664 3.72657 17.8689L5.82835 18.3208L3.27619 30.2204C2.97593 31.4254 3.27619 32.6304 3.87669 33.6848C4.4772 34.7392 5.67822 35.4923 6.72911 35.643C7.93013 35.9442 9.13115 35.643 10.182 35.0405C11.2329 34.438 11.9836 33.3836 12.1337 32.1785L13.3347 26.9066L15.4365 27.3585C16.6375 27.6597 17.8385 27.3585 18.8894 26.7559C19.9403 26.1534 20.6909 25.099 20.8411 23.894L21.1413 22.2371L21.5917 22.3877C26.2457 24.0447 30.2991 26.7559 33.752 30.371ZM43.0599 2.65553C43.5103 2.35427 44.1108 2.20365 44.5612 2.35427C45.6121 2.65553 46.3627 3.70992 46.2126 4.76432L40.6579 31.1241C40.3576 32.1785 39.3067 32.9317 38.2558 32.7811C37.8055 32.6304 37.3551 32.3292 37.0548 31.8773C36.7546 31.4254 36.6044 30.8229 36.7546 30.371L42.3093 4.01118C42.3093 3.40867 42.6095 2.95678 43.0599 2.65553ZM7.32962 33.0823C7.17949 33.0823 7.17949 33.0823 7.32962 33.0823C6.1286 32.7811 5.52809 31.7267 5.67822 30.6723L8.23038 18.7727L12.2838 19.6765L9.73166 31.576C9.4314 32.6304 8.38051 33.3836 7.32962 33.0823ZM4.17695 15.3083C3.57644 15.1576 3.12606 14.8564 2.8258 14.4045C2.52555 13.9526 2.52555 13.3501 2.52555 12.7476L3.87669 6.11997C4.17695 5.06557 5.37797 4.31243 6.42886 4.61369L18.2889 7.17436L16.037 17.8689L4.17695 15.3083ZM15.8869 24.6472L13.7851 24.1953L14.6859 20.1283L15.2864 20.279C16.037 20.4296 16.9378 20.5802 18.439 21.0321L18.7393 21.1827L18.2889 23.1409C18.1388 24.1953 17.0879 24.9484 15.8869 24.6472ZM18.8894 18.4714L18.5892 18.3208L20.8411 7.47561H21.1413C26.9963 8.22875 32.8512 7.77687 38.406 5.81871H39.1566L34.5027 27.5091L34.0523 27.0572C29.6986 22.9903 24.5943 20.1283 18.8894 18.4714Z" fill="url(#paint0_linear_10_419)"/>
<path d="M7.93015 9.58436C7.6299 9.73498 7.47977 10.0362 7.32964 10.3375C7.17951 10.6388 7.32964 10.94 7.47977 11.2413C7.78002 11.5425 7.93015 11.8438 8.38053 11.8438L11.6833 12.5969C11.9836 12.5969 12.2838 12.5969 12.5841 12.4463C12.8843 12.2957 13.0345 11.9944 13.1846 11.6931C13.1846 11.3919 13.1846 11.0906 13.0345 10.7894C12.7342 10.3375 12.434 10.1869 12.1337 10.0362L8.83091 9.43373C8.53066 9.2831 8.2304 9.43373 7.93015 9.58436Z" fill="url(#paint1_linear_10_419)"/>
<path d="M51.467 11.6933C51.1667 11.8439 51.0166 12.1451 50.8665 12.4464C50.8665 12.7477 50.8665 13.0489 51.0166 13.3502C51.1667 13.6514 51.467 13.802 51.7672 13.9527C52.0675 13.9527 52.3677 13.9527 52.668 13.802L55.5204 11.9945C56.1209 11.5426 56.271 10.7895 55.8207 10.187C55.6705 9.88573 55.3703 9.7351 55.07 9.58447C54.7698 9.58447 54.4695 9.58447 54.1693 9.7351L51.467 11.6933Z" fill="url(#paint2_linear_10_419)"/>
<path d="M48.1642 27.5091L49.9657 30.371C50.1159 30.6723 50.4161 30.8229 50.7164 30.9735C51.0166 30.9735 51.3169 30.9735 51.6171 30.8229C51.9174 30.6723 52.0675 30.371 52.2176 30.0698C52.2176 29.7685 52.2176 29.4672 52.0675 29.166L50.266 26.3041C50.1159 26.0028 49.8156 25.8522 49.5154 25.7016C49.2151 25.5509 48.7647 25.7016 48.4645 25.8522C47.864 26.0028 47.7138 26.9066 48.1642 27.5091Z" fill="url(#paint3_linear_10_419)"/>
<path d="M52.3678 19.2245C52.0676 19.3752 51.9175 19.6764 51.7673 19.9777C51.7673 20.2789 51.7673 20.5802 51.9175 20.8814C52.0676 21.1827 52.3678 21.3333 52.6681 21.484L57.322 22.5384C57.6223 22.5384 57.9226 22.5384 58.2228 22.3877C58.5231 22.2371 58.6732 21.9358 58.8233 21.6346C58.9734 20.8814 58.5231 20.2789 57.9225 20.1283L53.2686 19.0739C52.9684 18.9233 52.6681 18.9233 52.3678 19.2245Z" fill="url(#paint4_linear_10_419)"/>
<defs>
<linearGradient id="paint0_linear_10_419" x1="0.0527837" y1="11.5893" x2="45.4014" y2="22.2862" gradientUnits="userSpaceOnUse">
<stop stop-color="#FFC01E"/>
<stop offset="0.0838048" stop-color="#FFBB1B"/>
<stop offset="0.672" stop-color="#FF9C07"/>
<stop offset="1" stop-color="#FF9000"/>
</linearGradient>
<linearGradient id="paint1_linear_10_419" x1="7.34746" y1="10.2632" x2="13.0968" y2="11.6193" gradientUnits="userSpaceOnUse">
<stop stop-color="#FFC01E"/>
<stop offset="0.0838048" stop-color="#FFBB1B"/>
<stop offset="0.672" stop-color="#FF9C07"/>
<stop offset="1" stop-color="#FF9000"/>
</linearGradient>
<linearGradient id="paint2_linear_10_419" x1="51.1894" y1="11.2444" x2="55.9273" y2="12.362" gradientUnits="userSpaceOnUse">
<stop stop-color="#FFC01E"/>
<stop offset="0.0838048" stop-color="#FFBB1B"/>
<stop offset="0.672" stop-color="#FF9C07"/>
<stop offset="1" stop-color="#FF9000"/>
</linearGradient>
<linearGradient id="paint3_linear_10_419" x1="47.6859" y1="27.5456" x2="52.531" y2="28.6885" gradientUnits="userSpaceOnUse">
<stop stop-color="#FFC01E"/>
<stop offset="0.0838048" stop-color="#FFBB1B"/>
<stop offset="0.672" stop-color="#FF9C07"/>
<stop offset="1" stop-color="#FF9000"/>
</linearGradient>
<linearGradient id="paint4_linear_10_419" x1="51.7672" y1="19.8627" x2="58.8702" y2="21.5381" gradientUnits="userSpaceOnUse">
<stop stop-color="#FFC01E"/>
<stop offset="0.0838048" stop-color="#FFBB1B"/>
<stop offset="0.672" stop-color="#FF9C07"/>
<stop offset="1" stop-color="#FF9000"/>
</linearGradient>
</defs>
</svg>
