<svg width="52" height="70" viewBox="0 0 52 70" fill="none" xmlns="http://www.w3.org/2000/svg">
<path d="M15.81 44.9853C16.655 44.9853 17.34 44.3038 17.34 43.4632C17.34 42.6226 16.655 41.9412 15.81 41.9412C14.965 41.9412 14.28 42.6226 14.28 43.4632C14.28 44.3038 14.965 44.9853 15.81 44.9853Z" fill="url(#paint0_linear_10_437)"/>
<path d="M21.7601 64.0957C22.6101 63.9266 22.9501 63.081 22.7801 62.2354L18.7001 47.6913C18.5301 46.8457 17.6801 46.5074 16.8301 46.6766C15.9801 46.8457 15.6401 47.6913 15.8101 48.5369L19.8901 63.081C20.0601 63.9266 20.9101 64.4339 21.7601 64.0957Z" fill="url(#paint1_linear_10_437)"/>
<path d="M38.93 0.676471C38.76 0.338235 38.25 0 37.74 0C37.23 0 36.72 0.169118 36.38 0.507353C35.53 1.69118 30.77 7.77941 30.6 10.6544C30.43 12.3456 31.11 14.0368 32.13 15.3897C31.45 17.25 30.94 19.7868 30.26 22.8309L25.16 4.90441C24.99 4.05882 24.14 3.72059 23.29 3.88971L14.11 6.59559C13.43 6.76471 12.92 7.6103 13.09 8.28677L19.21 29.5956L15.81 23.6765L12.07 17.4191C12.07 17.4191 12.07 17.4191 11.9 17.25L11.73 17.0809C11.73 17.0809 11.73 17.0809 11.56 16.9118L2.38 10.9926C1.87 10.6544 1.36 10.6544 0.85 10.9926C0.17 11.1618 0 11.6691 0 12.3456L0.85 23.5074V23.6765C0.85 23.6765 0.85 23.6765 0.85 23.8456C0.85 23.8456 0.85 23.8456 0.85 24.0147V24.1838L4.59 30.4412L6.97 34.6691C6.29 35.0074 5.78 35.5147 5.44 36.1912C5.27 36.8676 5.1 37.8824 5.44 38.8971C5.95 40.4191 7.14 41.6029 8.84 41.7721L15.3 64.603C16.32 67.9853 19.72 69.8456 23.12 69L46.41 62.4044C49.81 61.3897 51.68 58.0074 50.83 54.625L44.37 31.7941C44.71 31.4559 45.05 31.1177 45.39 30.6103C45.9 29.7647 46.07 28.5809 45.73 27.5662C45.22 25.875 43.69 24.6912 41.99 24.6912C41.82 21.4779 41.48 18.6029 41.14 16.2353C42.5 15.2206 43.35 13.5294 43.52 11.8382C43.52 8.79412 40.12 2.53677 38.93 0.676471ZM47.77 55.3015C48.28 56.9927 47.26 58.8529 45.39 59.3603L22.27 65.9559C20.57 66.4632 18.7 65.4485 18.19 63.5882L11.73 41.0956L41.48 32.8088L47.77 55.3015ZM20.4 11.6691C20.57 12.5147 21.42 12.8529 22.27 12.6838L24.31 12.1765L24.82 13.8676L22.78 14.375C21.93 14.5441 21.59 15.3897 21.76 16.2353C21.93 17.0809 22.78 17.4191 23.63 17.25L25.67 16.7426L26.18 18.4338L24.14 18.9412C23.29 19.1103 22.95 19.9559 23.12 20.8015C23.29 21.6471 24.14 21.9853 24.99 21.8162L27.03 21.3088L27.54 23L25.5 23.5074C24.65 23.6765 24.31 24.5221 24.48 25.3676C24.65 26.2132 25.5 26.5515 26.35 26.3824L28.39 25.875L29.07 27.9044L22.61 29.7647L16.49 8.96324L22.95 7.10294L23.63 9.13235L21.59 9.63971C20.57 10.1471 20.23 10.9926 20.4 11.6691ZM8.33 37.375C8.5 37.2059 8.67 37.0368 9.01 36.8676L41.65 27.7353C42.16 27.5662 42.67 27.9044 42.84 28.4118C42.84 28.5809 42.84 28.9191 42.84 29.0882C42.67 29.2574 42.5 29.4265 42.33 29.5956L9.52 38.7279C9.01 38.8971 8.5 38.5588 8.33 38.0515C8.33 37.8824 8.33 37.5441 8.33 37.375ZM36.55 17.5882C37.06 17.5882 37.57 17.5882 38.08 17.5882C38.42 19.7868 38.76 22.6618 38.76 25.5368L32.81 27.2279C33.49 23 34.17 19.7868 34.85 17.4191C35.36 17.4191 35.87 17.5882 36.55 17.5882ZM36.72 14.5441C36.04 14.5441 35.36 14.2059 34.85 13.8676C34 13.1912 33.49 12.1765 33.49 10.9926C33.66 9.80882 35.36 6.76471 37.23 4.22794C38.76 7.10294 40.12 10.3162 40.12 11.5C39.95 12.6838 39.44 13.6985 38.42 14.2059C38.08 14.5441 37.4 14.5441 36.72 14.5441ZM10.2 33.4853L7.48 28.75L5.1 24.8603C6.29 24.6912 7.31 24.3529 8.33 23.6765C9.35 23 10.2 22.3235 10.88 21.3088L13.09 25.3676L16.83 31.625L10.2 33.4853ZM6.8 21.3088C5.95 21.8162 4.93 21.9853 3.74 21.9853L3.23 15.2206L8.84 18.9412C8.5 19.9559 7.82 20.6324 6.8 21.3088Z" fill="url(#paint2_linear_10_437)"/>
<defs>
<linearGradient id="paint0_linear_10_437" x1="14.3332" y1="43.4428" x2="17.3443" y2="43.4428" gradientUnits="userSpaceOnUse">
<stop stop-color="#FFC01E"/>
<stop offset="0.0838048" stop-color="#FFBB1B"/>
<stop offset="0.672" stop-color="#FF9C07"/>
<stop offset="1" stop-color="#FF9000"/>
</linearGradient>
<linearGradient id="paint1_linear_10_437" x1="15.6486" y1="55.3956" x2="22.8027" y2="55.3956" gradientUnits="userSpaceOnUse">
<stop stop-color="#FFC01E"/>
<stop offset="0.0838048" stop-color="#FFBB1B"/>
<stop offset="0.672" stop-color="#FF9C07"/>
<stop offset="1" stop-color="#FF9000"/>
</linearGradient>
<linearGradient id="paint2_linear_10_437" x1="0" y1="34.5132" x2="50.9794" y2="34.5132" gradientUnits="userSpaceOnUse">
<stop stop-color="#FFC01E"/>
<stop offset="0.0838048" stop-color="#FFBB1B"/>
<stop offset="0.672" stop-color="#FF9C07"/>
<stop offset="1" stop-color="#FF9000"/>
</linearGradient>
</defs>
</svg>
