<svg width="45" height="49" viewBox="0 0 45 49" fill="none" xmlns="http://www.w3.org/2000/svg">
<path d="M21.8306 8.54125C21.5983 7.96043 20.9013 7.61195 20.3205 7.84427C19.7397 8.0766 19.3912 8.77358 19.6236 9.35439C19.8559 9.93521 20.5528 10.2837 21.1337 10.0514C21.7145 9.81904 22.0629 9.12206 21.8306 8.54125Z" fill="url(#paint0_linear_5_311)"/>
<path d="M11.9567 11.0968C11.3759 11.3291 11.0275 12.0261 11.2598 12.6069C11.4921 13.1878 12.1891 13.5362 12.7699 13.3039C13.3507 13.0716 13.6992 12.3746 13.4668 11.7938C13.2345 11.213 12.5376 10.8645 11.9567 11.0968Z" fill="url(#paint1_linear_5_311)"/>
<path d="M41.5784 20.6222C41.8107 19.3444 41.6945 17.8343 41.2299 16.6727C40.5329 14.9302 39.139 13.5363 37.3965 12.8393C37.3965 12.0261 37.2803 11.3292 36.9318 10.516C36.0025 8.19275 33.9116 6.45031 31.356 6.10182C30.5429 3.43007 28.1034 1.80379 25.3155 2.03612C23.4569 0.177508 20.669 -0.51947 18.3458 0.409834C16.371 1.22297 14.8609 2.96542 14.3963 5.05635C12.5376 3.77856 10.3305 3.43007 8.35577 4.24321C6.03251 5.17252 4.40623 7.49578 4.29006 10.1675C2.08297 11.7938 1.38599 14.6979 2.54762 17.2535C0.921338 19.1121 0.456686 21.9 1.38599 24.2232C1.61832 24.9202 2.08297 25.6172 2.54762 26.198C1.73448 27.8243 1.61833 29.7991 2.19914 31.5415C2.6638 32.8193 3.59307 33.9809 4.63854 34.6779C4.40621 35.9557 4.40623 37.2335 4.87088 38.3951C5.45169 40.0214 6.61328 41.2992 8.23956 41.9962C8.70422 43.8548 9.86587 45.4811 11.6083 46.4104C13.3508 47.3397 15.2093 47.4558 16.9518 46.875C19.0427 48.5013 21.7145 48.8498 24.1539 47.9205C26.4772 46.9912 28.2196 44.9003 28.6843 42.3447C30.7752 43.971 33.447 44.3194 35.8864 43.5063C38.3258 42.577 40.0683 40.4861 40.5329 37.9305C43.7855 36.6527 45.4117 32.7031 44.134 29.2183C44.0178 28.9859 43.9016 28.7536 43.7855 28.4051C44.4825 26.7788 44.4824 25.0364 43.9016 23.5263C43.437 22.3646 42.6238 21.4353 41.5784 20.6222ZM41.4622 29.2183C41.6945 29.5667 41.8107 29.7991 41.9268 30.0314C42.3915 31.193 42.2754 32.587 41.6946 33.8648C41.1137 34.9102 40.3006 35.6072 39.3713 35.8395H39.2551C38.7904 35.9557 38.442 36.4204 38.3258 36.885C38.2096 38.8598 36.9319 40.6022 35.0733 41.2992C32.5177 42.3447 29.4974 40.8346 28.452 38.1628C27.4065 35.4911 28.8004 32.587 31.356 31.5415C31.9368 31.3092 32.2853 30.6122 32.053 30.0314C31.8206 29.4506 31.1237 29.1021 30.5429 29.3344C28.8004 30.0314 27.2903 31.3092 26.4772 33.0516L20.669 17.8343C20.3205 17.0211 20.7852 16.208 21.4822 15.8595C22.063 15.6272 22.4114 14.9302 22.1791 14.3494C21.9468 13.7686 21.2498 13.4201 20.669 13.6524C20.2044 13.8847 19.7397 14.1171 19.3913 14.4656L17.068 8.30892C16.2549 6.10182 17.3003 3.43007 19.3913 2.61693C20.4367 2.15228 21.7145 2.3846 22.8761 2.96542C22.063 3.54623 21.366 4.35938 20.9014 5.28868C20.669 5.86949 20.9014 6.56647 21.4822 6.7988C22.063 7.03112 22.7599 6.7988 22.9923 6.21798C23.3408 5.40484 24.0378 4.82403 24.8509 4.47554C26.4772 3.89472 28.2196 4.5917 29.0328 6.10182C25.3155 7.14729 23.457 11.3292 24.8509 15.0464C25.0833 15.6272 25.7802 15.9757 26.361 15.7433C26.9418 15.511 27.2903 14.814 27.058 14.2332C26.2448 12.0261 27.2903 9.35438 29.3812 8.54124C31.4722 7.7281 34.0278 9.00589 34.8409 11.213C35.0732 11.91 35.1894 12.6069 35.0733 13.3039C34.9571 13.8847 35.4217 14.4656 36.0025 14.6979C37.3965 14.9302 38.5581 15.9757 39.139 17.2535C39.9521 19.4606 38.9066 22.1323 36.8157 22.9455C36.2349 23.1778 35.8864 23.8748 36.1187 24.4556C36.351 25.0364 37.048 25.3849 37.6289 25.1525C38.9066 24.6879 39.9521 23.7586 40.6491 22.597C41.1137 23.0616 41.4622 23.5263 41.6946 24.2232C42.1592 25.3849 42.043 26.6627 41.4622 27.7081C41.2299 28.4051 41.2299 28.8698 41.4622 29.2183ZM14.9771 17.2535C15.2094 17.8343 15.9064 18.1828 16.4872 17.9504C17.3003 17.602 18.1135 18.0666 18.462 18.7636L24.2701 33.9809C22.5277 33.284 20.5529 33.284 18.8104 33.9809C18.2296 34.2133 17.8811 34.9102 18.1134 35.4911C18.3457 36.0719 19.0428 36.4204 19.6236 36.188C22.2953 35.1426 25.1994 36.5365 26.2448 39.0921C27.2903 41.7639 26.0125 44.9003 23.457 45.9457C21.5983 46.6427 19.5074 46.1781 18.1134 44.7841C17.7649 44.4356 17.3003 44.3194 16.8357 44.5518H16.7195L16.6033 44.6679C15.674 45.2487 14.2801 45.1326 13.1184 44.5518C11.7245 43.8548 10.9114 42.577 10.679 41.183C10.5629 40.7184 10.3305 40.3699 9.86587 40.2537C8.70424 39.9052 7.77493 38.9759 7.31027 37.8143C7.07795 37.2335 6.96177 36.5365 7.07793 35.9557C8.35573 36.3042 9.74971 36.3042 11.0275 35.8395C11.6083 35.6072 11.9568 34.9102 11.7245 34.3294C11.4921 33.7486 10.7952 33.4001 10.2143 33.6324C8.12341 34.4456 5.56781 33.1678 4.75467 30.9607C4.29002 29.5667 4.40618 28.1728 5.33549 27.0112C5.68398 26.5465 5.56787 25.7334 5.10322 25.3849C4.5224 24.9202 4.05771 24.3394 3.82538 23.6424C3.01224 21.4353 4.05771 18.7636 6.14864 17.9504C8.23958 17.1373 10.7952 18.4151 11.6083 20.6222C11.8406 21.203 12.5376 21.5515 13.1184 21.3192C13.6992 21.0868 14.0478 20.3899 13.8154 19.8091C12.4215 16.208 8.1234 14.3494 4.75467 15.9757C4.29002 14.3494 5.10318 12.6069 6.72946 11.91C7.5426 11.5615 8.47192 11.5615 9.28506 12.0261C9.51738 12.1423 9.86586 12.1423 10.2143 12.0261C10.5628 11.91 10.7952 11.6776 10.9114 11.4453C11.0275 11.213 11.0275 10.8645 10.9114 10.516C10.7952 10.1675 10.5629 9.9352 10.3306 9.81904C9.40125 9.35438 8.35574 9.23822 7.31027 9.35438C7.65876 8.07659 8.58807 7.14729 9.63353 6.68263C11.7245 5.86949 14.2801 7.14729 15.0932 9.35438L17.4165 15.511C16.9518 15.511 16.371 15.6272 15.9064 15.7433C14.9771 15.8595 14.7447 16.5565 14.9771 17.2535Z" fill="url(#paint2_linear_5_311)"/>
<path d="M12.3053 24.2232C10.679 24.1071 9.16894 23.0616 8.58813 21.5515C8.3558 20.9707 7.65877 20.6222 7.07795 20.8545C6.49714 21.0868 6.14868 21.7838 6.381 22.3646C7.54263 25.2687 10.4467 27.0111 13.4669 26.5465C13.3508 27.4758 12.77 28.2889 11.9568 28.6374C11.376 28.8698 11.0275 29.5667 11.2599 30.1475C11.4922 30.7284 12.1892 31.0769 12.77 30.8445C14.8609 30.0314 16.0225 27.9405 15.7902 25.7334C16.8356 25.1525 17.765 24.2232 18.3458 23.0616C18.4619 22.8293 18.462 22.4808 18.462 22.1323C18.3458 21.7838 18.1135 21.5515 17.8812 21.4353C17.3004 21.0868 16.6033 21.3192 16.2549 21.9C15.4417 23.4101 13.9316 24.3394 12.3053 24.2232Z" fill="url(#paint3_linear_5_311)"/>
<path d="M14.2801 39.5568C13.6993 39.7891 13.3508 40.4861 13.5832 41.0669C13.8155 41.6477 14.5124 41.9962 15.0933 41.7639C17.1842 40.9507 19.7398 42.2285 20.5529 44.4356C20.7853 45.0164 21.4822 45.3649 22.063 45.1326C22.6438 44.9003 22.9923 44.2033 22.76 43.6225C21.4822 40.0214 17.5327 38.279 14.2801 39.5568Z" fill="url(#paint4_linear_5_311)"/>
<path d="M18.3457 30.2637C15.5578 31.3092 13.5831 33.8648 13.1184 36.7688C13.1184 37.1173 13.1184 37.3497 13.3507 37.6982C13.5831 37.9305 13.8154 38.1628 14.1639 38.1628C14.3962 38.1628 14.6286 38.1628 14.7447 38.0466C14.8609 38.0466 14.9771 37.9305 14.9771 37.9305C15.2094 37.6982 15.4417 37.4658 15.4417 37.1173C15.7902 35.0264 17.1841 33.1678 19.1589 32.4708C19.7397 32.2385 20.0882 31.5415 19.8558 30.9607C19.6235 30.3799 18.9266 30.0314 18.3457 30.2637Z" fill="url(#paint5_linear_5_311)"/>
<path d="M32.8661 23.0616C33.4469 22.8293 33.7954 22.1323 33.5631 21.5515C33.3307 20.9707 32.6337 20.6222 32.0529 20.8545C31.1236 21.203 30.1943 20.9707 29.4974 20.3899C32.053 18.6474 33.0984 15.511 32.0529 12.6069C31.8206 12.0261 31.1236 11.6776 30.5428 11.91C29.962 12.1423 29.6135 12.8393 29.8458 13.4201C30.659 15.6272 29.6135 17.9504 27.4064 18.8797C26.4771 19.2282 25.4316 19.2282 24.3862 18.8797C23.8054 18.6474 23.1084 18.9959 22.8761 19.5767C22.7599 19.9252 22.7599 20.1575 22.8761 20.506C22.9922 20.7383 23.2245 20.9707 23.573 21.0868C24.7346 21.5515 26.0124 21.6677 27.2902 21.3192C28.4519 23.1778 30.7751 23.8747 32.8661 23.0616Z" fill="url(#paint6_linear_5_311)"/>
<path d="M37.6288 30.4961C34.2601 31.7738 32.6338 35.7234 33.9116 39.2083C34.1439 39.7891 34.8409 40.1376 35.4217 39.9053C36.0025 39.6729 36.351 38.9759 36.1187 38.3951C35.3055 36.188 36.351 33.5163 38.4419 32.7031C39.0227 32.4708 39.3713 31.7738 39.139 31.193C38.9066 30.6122 38.2097 30.2637 37.6288 30.4961Z" fill="url(#paint7_linear_5_311)"/>
<path d="M35.1894 29.5667C35.4217 29.7991 35.7702 29.9152 36.0026 29.7991C36.1187 29.7991 36.2349 29.7991 36.351 29.6829C36.5834 29.5667 36.6995 29.4506 36.8157 29.3344C37.048 29.1021 37.1642 28.7536 37.0481 28.5213C37.0481 28.1728 36.8157 27.9405 36.5834 27.7081C34.2601 25.8495 31.1237 25.2687 28.3358 26.3142C27.755 26.5465 27.4065 27.2435 27.6388 27.8243C27.8711 28.4051 28.5681 28.7536 29.1489 28.5213C31.2398 27.8243 33.5631 28.1728 35.1894 29.5667Z" fill="url(#paint8_linear_5_311)"/>
<defs>
<linearGradient id="paint0_linear_5_311" x1="19.5232" y1="8.93225" x2="21.8953" y2="8.93225" gradientUnits="userSpaceOnUse">
<stop stop-color="#FFC01E"/>
<stop offset="0.0838048" stop-color="#FFBB1B"/>
<stop offset="0.672" stop-color="#FF9C07"/>
<stop offset="1" stop-color="#FF9000"/>
</linearGradient>
<linearGradient id="paint1_linear_5_311" x1="11.1656" y1="12.1486" x2="13.5377" y2="12.1486" gradientUnits="userSpaceOnUse">
<stop stop-color="#FFC01E"/>
<stop offset="0.0838048" stop-color="#FFBB1B"/>
<stop offset="0.672" stop-color="#FF9C07"/>
<stop offset="1" stop-color="#FF9000"/>
</linearGradient>
<linearGradient id="paint2_linear_5_311" x1="0.919479" y1="24.3757" x2="44.6518" y2="24.3757" gradientUnits="userSpaceOnUse">
<stop stop-color="#FFC01E"/>
<stop offset="0.0838048" stop-color="#FFBB1B"/>
<stop offset="0.672" stop-color="#FF9C07"/>
<stop offset="1" stop-color="#FF9000"/>
</linearGradient>
<linearGradient id="paint3_linear_5_311" x1="6.31293" y1="25.838" x2="18.482" y2="25.838" gradientUnits="userSpaceOnUse">
<stop stop-color="#FFC01E"/>
<stop offset="0.0838048" stop-color="#FFBB1B"/>
<stop offset="0.672" stop-color="#FF9C07"/>
<stop offset="1" stop-color="#FF9000"/>
</linearGradient>
<linearGradient id="paint4_linear_5_311" x1="13.4853" y1="42.124" x2="22.898" y2="42.124" gradientUnits="userSpaceOnUse">
<stop stop-color="#FFC01E"/>
<stop offset="0.0838048" stop-color="#FFBB1B"/>
<stop offset="0.672" stop-color="#FF9C07"/>
<stop offset="1" stop-color="#FF9000"/>
</linearGradient>
<linearGradient id="paint5_linear_5_311" x1="13.0843" y1="34.1732" x2="19.9703" y2="34.1732" gradientUnits="userSpaceOnUse">
<stop stop-color="#FFC01E"/>
<stop offset="0.0838048" stop-color="#FFBB1B"/>
<stop offset="0.672" stop-color="#FF9C07"/>
<stop offset="1" stop-color="#FF9000"/>
</linearGradient>
<linearGradient id="paint6_linear_5_311" x1="22.7949" y1="17.5949" x2="33.6328" y2="17.5949" gradientUnits="userSpaceOnUse">
<stop stop-color="#FFC01E"/>
<stop offset="0.0838048" stop-color="#FFBB1B"/>
<stop offset="0.672" stop-color="#FF9C07"/>
<stop offset="1" stop-color="#FF9000"/>
</linearGradient>
<linearGradient id="paint7_linear_5_311" x1="33.5225" y1="35.2116" x2="39.2605" y2="35.2116" gradientUnits="userSpaceOnUse">
<stop stop-color="#FFC01E"/>
<stop offset="0.0838048" stop-color="#FFBB1B"/>
<stop offset="0.672" stop-color="#FF9C07"/>
<stop offset="1" stop-color="#FF9000"/>
</linearGradient>
<linearGradient id="paint8_linear_5_311" x1="27.6285" y1="27.8373" x2="37.1219" y2="27.8373" gradientUnits="userSpaceOnUse">
<stop stop-color="#FFC01E"/>
<stop offset="0.0838048" stop-color="#FFBB1B"/>
<stop offset="0.672" stop-color="#FF9C07"/>
<stop offset="1" stop-color="#FF9000"/>
</linearGradient>
</defs>
</svg>
