<svg width="43" height="43" viewBox="0 0 43 43" fill="none" xmlns="http://www.w3.org/2000/svg">
<path d="M32.381 24.5796H32.6133L32.7294 24.6958C33.8911 25.9735 35.7497 26.3221 37.2598 25.3928C38.0729 24.9281 38.6538 24.115 38.8861 23.1857C39.1184 22.2563 39.0022 21.3271 38.5376 20.5139L27.9668 2.62479C27.5021 1.81165 26.689 1.23088 25.7597 0.998552C24.8304 0.766226 23.9011 0.882375 23.0879 1.34703C21.5778 2.16017 20.997 4.01879 21.5778 5.64507V5.76121L21.4616 5.99355C19.0222 10.8724 15.305 14.9381 10.6585 17.726L2.4109 22.6048C1.59776 23.0695 1.01695 23.8827 0.784619 24.812C0.552293 25.7413 0.66846 26.6706 1.13311 27.4837L3.80485 32.014C4.85032 33.7565 7.05742 34.3373 8.68371 33.2918L10.0777 32.4787L14.8403 40.6101C15.305 41.4232 16.1181 42.0041 17.0474 42.2364C17.9767 42.4687 18.906 42.3525 19.7192 41.8879C20.5323 41.4232 21.1131 40.6101 21.3455 39.6808C21.5778 38.7515 21.4616 37.8222 20.997 37.0091L18.906 33.408L20.3 32.5948C21.1131 32.1302 21.694 31.3171 21.9263 30.3878C22.1586 29.4585 22.0424 28.5292 21.5778 27.716L20.997 26.6705L21.3455 26.5544C24.8304 24.9281 28.5476 24.3473 32.381 24.5796ZM23.3202 3.90263C23.4364 3.43797 23.6687 3.08943 24.0172 2.97327C24.8304 2.50861 25.7597 2.74094 26.2243 3.55408L36.7951 21.4432C37.2598 22.2563 37.0275 23.1857 36.2143 23.6503C35.8658 23.8827 35.4012 23.8826 35.0527 23.7665C34.588 23.6503 34.2396 23.418 34.1234 23.0695L23.5526 5.18039C23.3202 4.8319 23.2041 4.36728 23.3202 3.90263ZM18.6737 40.0293C17.8606 40.4939 16.9313 40.2616 16.4666 39.4485L11.7039 31.3171L14.4919 29.6908L19.2545 37.8222C19.7192 38.5191 19.4869 39.5646 18.6737 40.0293ZM7.63824 31.4332C7.28975 31.6655 6.8251 31.6656 6.36045 31.5494C5.89579 31.4332 5.5473 31.2009 5.43114 30.8524L2.7594 26.3221C2.29474 25.5089 2.52707 24.5796 3.34021 24.1149L11.4716 19.3523L15.7696 26.6705L7.63824 31.4332ZM19.2545 30.6201L17.8606 31.4332L16.2343 28.6453L16.5828 28.413C17.0474 28.1807 17.7444 27.716 18.7899 27.2514L19.0222 27.1352L19.8353 28.413C20.3 29.2261 19.9515 30.1555 19.2545 30.6201ZM17.7444 25.625L17.5121 25.7413L13.2141 18.423L13.4464 18.3068C17.2798 15.7512 20.3 12.3825 22.5071 8.31681L22.7394 7.85213L31.4516 22.6048H30.8708C26.2243 22.4887 21.8101 23.5341 17.7444 25.625Z" fill="url(#paint0_linear_5_325)"/>
<path d="M6.82516 26.2058C6.70899 26.4381 6.82515 26.6705 6.94132 26.9028C7.05748 27.1352 7.28981 27.2513 7.52213 27.3674C7.75446 27.4836 8.10294 27.3675 8.21911 27.2513L10.4262 25.9736C10.6585 25.8574 10.7747 25.6251 10.8909 25.3927C11.007 25.1604 10.8909 24.928 10.7747 24.6957C10.6585 24.4634 10.4262 24.3473 10.1939 24.2311C9.96155 24.1149 9.72922 24.2311 9.4969 24.3472L7.2898 25.625C7.05747 25.7412 6.82516 25.9735 6.82516 26.2058Z" fill="url(#paint1_linear_5_325)"/>
<path d="M32.7295 4.71563C32.6133 4.94796 32.7295 5.18033 32.8456 5.41266C32.9618 5.64498 33.1941 5.7611 33.4264 5.87726C33.6588 5.99343 34.0073 5.87729 34.1234 5.76113C34.3557 5.64497 34.4719 5.41264 34.5881 5.18032L35.285 2.62472C35.4012 2.0439 35.0527 1.57925 34.5881 1.46309C34.3557 1.34692 34.1234 1.46313 33.8911 1.57929C33.6588 1.69545 33.5426 1.92778 33.4264 2.16011L32.7295 4.71563Z" fill="url(#paint2_linear_5_325)"/>
<path d="M39.1184 15.4027L41.674 16.0997C41.9064 16.2159 42.1387 16.0997 42.371 15.9835C42.6033 15.8673 42.7195 15.635 42.8357 15.4027C42.9518 15.1703 42.8357 14.938 42.7195 14.7057C42.6033 14.4734 42.371 14.3572 42.1387 14.241L39.5831 13.5441C39.3508 13.4279 39.1184 13.5441 38.8861 13.6602C38.6538 13.7764 38.5376 14.0087 38.4215 14.241C38.1891 14.7057 38.5376 15.2865 39.1184 15.4027Z" fill="url(#paint3_linear_5_325)"/>
<path d="M37.1437 8.54916C37.0275 8.78149 37.1437 9.01379 37.2599 9.24611C37.376 9.47844 37.6083 9.59463 37.8407 9.71079C38.073 9.82695 38.3053 9.71075 38.5376 9.59459L41.6741 7.73601C41.9064 7.61984 42.0225 7.38752 42.1387 7.15519C42.2549 6.92287 42.1387 6.6905 42.0225 6.45817C41.7902 5.99352 41.2094 5.87737 40.7447 6.1097L37.6084 7.96835C37.376 8.08451 37.2599 8.31684 37.1437 8.54916Z" fill="url(#paint4_linear_5_325)"/>
<defs>
<linearGradient id="paint0_linear_5_325" x1="3.38328" y1="31.4344" x2="34.8807" y2="13.9086" gradientUnits="userSpaceOnUse">
<stop stop-color="#FFC01E"/>
<stop offset="0.0838048" stop-color="#FFBB1B"/>
<stop offset="0.672" stop-color="#FF9C07"/>
<stop offset="1" stop-color="#FF9000"/>
</linearGradient>
<linearGradient id="paint1_linear_5_325" x1="6.86117" y1="26.8728" x2="10.8545" y2="24.6508" gradientUnits="userSpaceOnUse">
<stop stop-color="#FFC01E"/>
<stop offset="0.0838048" stop-color="#FFBB1B"/>
<stop offset="0.672" stop-color="#FF9C07"/>
<stop offset="1" stop-color="#FF9000"/>
</linearGradient>
<linearGradient id="paint2_linear_5_325" x1="32.4189" y1="4.55403" x2="35.7096" y2="2.72299" gradientUnits="userSpaceOnUse">
<stop stop-color="#FFC01E"/>
<stop offset="0.0838048" stop-color="#FFBB1B"/>
<stop offset="0.672" stop-color="#FF9C07"/>
<stop offset="1" stop-color="#FF9000"/>
</linearGradient>
<linearGradient id="paint3_linear_5_325" x1="38.8952" y1="15.6643" x2="42.2604" y2="13.7919" gradientUnits="userSpaceOnUse">
<stop stop-color="#FFC01E"/>
<stop offset="0.0838048" stop-color="#FFBB1B"/>
<stop offset="0.672" stop-color="#FF9C07"/>
<stop offset="1" stop-color="#FF9000"/>
</linearGradient>
<linearGradient id="paint4_linear_5_325" x1="37.2312" y1="9.16009" x2="42.1646" y2="6.41509" gradientUnits="userSpaceOnUse">
<stop stop-color="#FFC01E"/>
<stop offset="0.0838048" stop-color="#FFBB1B"/>
<stop offset="0.672" stop-color="#FF9C07"/>
<stop offset="1" stop-color="#FF9000"/>
</linearGradient>
</defs>
</svg>
