<svg width="49" height="34" viewBox="0 0 49 34" fill="none" xmlns="http://www.w3.org/2000/svg">
<path d="M12.7689 14.3784C9.05166 13.2168 6.1476 16.0047 6.03143 16.1208C5.68294 16.3532 5.4506 16.934 5.79909 17.2825C6.03142 17.631 6.61223 17.8633 6.96072 17.5148C7.07689 17.3986 7.19306 17.3986 7.19306 17.2825C8.58702 16.0047 10.4457 15.54 12.3043 16.0047C12.7689 16.1208 13.2335 15.8885 13.3497 15.4238C13.4659 15.0754 13.2335 14.6107 12.7689 14.3784Z" fill="url(#paint0_linear_5_351)"/>
<path d="M23.3397 11.7066C19.6225 10.545 16.7184 13.2168 16.6022 13.4491C16.2537 13.7976 16.2537 14.2622 16.6022 14.6107C16.9507 14.9592 17.4153 14.9592 17.7638 14.6107C19.1578 13.3329 21.0164 12.8683 22.875 13.3329C23.3397 13.4491 23.8043 13.2167 23.9205 12.7521C24.0367 12.4036 23.8043 11.939 23.3397 11.7066Z" fill="url(#paint1_linear_5_351)"/>
<path d="M23.1074 21.3482C22.9912 21.1159 22.8751 20.9997 22.7589 20.8835C22.5266 20.7674 22.2942 20.7674 22.0619 20.7674L11.4911 23.4391C11.0264 23.5553 10.7941 24.0199 10.7941 24.4846C11.3749 26.8078 13.6982 28.4341 16.4861 28.4341C17.0669 28.4341 17.6477 28.318 18.3447 28.2018C21.5972 27.2725 23.8044 24.2523 23.1074 21.3482ZM17.8801 26.4594C17.4154 26.5755 16.9507 26.5755 16.4861 26.5755C15.0921 26.6917 13.6982 25.9947 12.8851 24.7169L21.5973 22.5098C21.365 24.3684 19.971 25.9947 17.8801 26.4594Z" fill="url(#paint2_linear_5_351)"/>
<path d="M47.7339 6.36313L24.8498 0.0903323C24.3851 -0.0258307 23.9204 0.206495 23.8043 0.671147L23.4558 2.06512L0.804021 7.7571C0.339369 7.87326 0.107043 8.3379 0.223206 8.80256L4.05657 23.9037C5.79901 30.6412 12.6526 34.8231 19.3901 33.0806C21.5972 32.4998 23.572 31.4543 25.1982 29.8281C31.1226 33.5453 39.0216 31.6867 42.7388 25.7624C43.4358 24.7169 43.9005 23.5553 44.249 22.3936L48.4308 7.40862C48.547 6.94397 48.1985 6.47929 47.7339 6.36313ZM19.0416 31.4543C13.1173 32.9645 7.193 29.3634 5.68288 23.5553L2.08179 9.2672L23.4558 3.92373L27.0568 18.2118C28.5669 23.9037 24.9659 29.9442 19.0416 31.4543ZM42.6227 21.929C40.9964 27.7371 34.956 31.222 29.1478 29.5957C28.2185 29.3634 27.2892 29.0149 26.476 28.4341C27.2892 27.3886 27.9861 26.1109 28.4508 24.8331L35.5368 26.8078C35.6529 26.8078 35.6529 26.8078 35.7691 26.8078C36.1175 26.8078 36.466 26.5755 36.5822 26.227C37.3953 23.3229 35.3044 20.3027 31.9357 19.3734C31.0064 19.1411 29.9609 19.0249 29.0316 19.1411C28.9154 18.5602 28.9154 18.0956 28.7993 17.5148L27.4054 11.939C28.3347 12.2875 29.2639 12.5198 30.1932 12.5198C30.7741 12.5198 31.3549 12.4036 31.9357 12.2874C32.4003 12.1713 32.6327 11.7066 32.5165 11.242C32.4003 10.7773 31.9357 10.545 31.4711 10.6612C29.8448 11.0097 28.1024 10.6612 26.8246 9.61571L25.0821 2.99441L25.4306 1.83278L46.5723 7.64093L42.6227 21.929ZM28.9155 23.3229C29.0316 22.5098 29.1478 21.8128 29.1478 20.9997C29.961 20.8835 30.7741 20.8835 31.4711 21.1158C33.562 21.6967 34.9559 23.3229 35.0721 25.0654L28.9155 23.3229Z" fill="url(#paint3_linear_5_351)"/>
<path d="M42.9712 14.2622C42.855 13.7976 42.3904 13.5653 41.9258 13.6814C40.0671 14.0299 38.2085 13.5653 36.9307 12.2875C36.5822 11.939 36.0014 11.939 35.7691 12.2875C35.4206 12.6359 35.4206 13.2168 35.7691 13.4491C37.163 14.7269 38.9055 15.4239 40.7641 15.54C41.3449 15.54 41.9258 15.4239 42.5066 15.3077C42.7389 15.1915 43.0873 14.7269 42.9712 14.2622Z" fill="url(#paint4_linear_5_351)"/>
<defs>
<linearGradient id="paint0_linear_5_351" x1="5.61753" y1="15.9414" x2="13.368" y2="15.9414" gradientUnits="userSpaceOnUse">
<stop stop-color="#FFC01E"/>
<stop offset="0.0838048" stop-color="#FFBB1B"/>
<stop offset="0.672" stop-color="#FF9C07"/>
<stop offset="1" stop-color="#FF9000"/>
</linearGradient>
<linearGradient id="paint1_linear_5_351" x1="16.3322" y1="13.2072" x2="23.9507" y2="13.2072" gradientUnits="userSpaceOnUse">
<stop stop-color="#FFC01E"/>
<stop offset="0.0838048" stop-color="#FFBB1B"/>
<stop offset="0.672" stop-color="#FF9C07"/>
<stop offset="1" stop-color="#FF9000"/>
</linearGradient>
<linearGradient id="paint2_linear_5_351" x1="10.8756" y1="24.6311" x2="23.2732" y2="24.6311" gradientUnits="userSpaceOnUse">
<stop stop-color="#FFC01E"/>
<stop offset="0.0838048" stop-color="#FFBB1B"/>
<stop offset="0.672" stop-color="#FF9C07"/>
<stop offset="1" stop-color="#FF9000"/>
</linearGradient>
<linearGradient id="paint3_linear_5_351" x1="0.509846" y1="16.901" x2="48.5967" y2="16.901" gradientUnits="userSpaceOnUse">
<stop stop-color="#FFC01E"/>
<stop offset="0.0838048" stop-color="#FFBB1B"/>
<stop offset="0.672" stop-color="#FF9C07"/>
<stop offset="1" stop-color="#FF9000"/>
</linearGradient>
<linearGradient id="paint4_linear_5_351" x1="35.5567" y1="13.797" x2="43.0165" y2="13.797" gradientUnits="userSpaceOnUse">
<stop stop-color="#FFC01E"/>
<stop offset="0.0838048" stop-color="#FFBB1B"/>
<stop offset="0.672" stop-color="#FF9C07"/>
<stop offset="1" stop-color="#FF9000"/>
</linearGradient>
</defs>
</svg>
