<svg width="51" height="53" viewBox="0 0 51 53" fill="none" xmlns="http://www.w3.org/2000/svg">
<path d="M2.03612 23.0921C0.177508 24.0214 -0.51947 26.3447 0.409834 28.2033L11.7938 50.0419C12.7231 51.9005 15.0464 52.5975 16.905 51.6682L48.3851 35.2892C50.2438 34.3599 50.9407 32.0367 50.0114 30.178L38.6275 8.3394C37.6982 6.4808 35.3749 5.78382 33.5163 6.71312L19.9252 13.7991L23.8748 1.48579C23.9909 0.904973 23.7586 0.324159 23.1778 0.207996C22.597 0.0918329 22.0161 0.324158 21.9 0.904973L17.602 14.6122L7.49578 11.4758C7.03112 11.3596 6.33415 11.592 6.21798 12.1728C6.10182 12.4051 6.10182 12.7536 6.33415 12.9859C6.45031 13.2182 6.68263 13.4506 6.91496 13.4506L15.6272 16.2385L2.03612 23.0921ZM34.5617 8.57173C35.3749 8.10708 36.4204 8.45557 36.885 9.26871L48.269 31.1074C48.7336 31.9205 48.3851 32.966 47.572 33.4306L15.9757 49.8096C15.1625 50.2742 14.1171 49.9258 13.6524 49.1126L2.26844 27.274C1.80379 26.4608 2.15228 25.4154 2.96542 24.9507L34.5617 8.57173Z" fill="url(#paint0_linear_5_305)"/>
<path d="M26.4304 16.587L7.03114 26.6932C6.56648 26.9255 6.33416 27.6225 6.56648 28.0871L15.3949 45.0469C15.6272 45.5116 16.3242 45.7439 16.7888 45.5116L36.188 35.4054C36.6527 35.1731 36.885 34.4761 36.6527 34.0114L27.8243 17.0516C27.4758 16.587 26.895 16.3547 26.4304 16.587ZM29.4506 36.567L21.5515 40.6327L21.4353 40.2842C20.2737 38.0771 21.203 35.4054 23.294 34.2437C25.5011 33.0821 28.1728 34.0114 29.3344 36.1024L29.4506 36.567ZM18.2989 31.2235C17.4858 29.7134 18.0666 27.8548 19.5767 27.0416C21.0869 26.2285 22.9455 26.8093 23.7586 28.3194C24.5717 29.8296 23.9909 31.6882 22.4808 32.5013C20.8545 33.3144 18.9959 32.7336 18.2989 31.2235ZM34.3294 34.0114L31.3092 35.6377L31.0769 35.2892C30.0314 33.3144 28.1728 32.0367 25.9657 31.8043H25.6172L25.7334 31.4558C26.198 30.178 26.0819 28.6679 25.501 27.3901C24.2233 24.8345 21.0869 23.9052 18.6474 25.183C16.208 26.4608 15.1625 29.5972 16.4403 32.0367C17.1373 33.3144 18.2989 34.2438 19.5767 34.5922L19.9252 34.7084L19.8091 34.9407C18.7636 36.9155 18.6474 39.1226 19.6929 41.0974L19.8091 41.4459L16.7888 43.0721L8.88974 27.971L26.4304 18.7941L34.3294 34.0114Z" fill="url(#paint1_linear_5_305)"/>
<path d="M33.0516 14.7284C31.193 15.6577 30.496 17.9809 31.4253 19.8395C32.3546 21.6982 34.6779 22.3951 36.5365 21.4658C38.3951 20.5365 39.0921 18.2133 38.1628 16.3547C37.2335 14.4961 34.9102 13.7991 33.0516 14.7284ZM35.6072 19.4911C34.7941 19.9557 33.7486 19.6072 33.2839 18.7941C32.8193 17.9809 33.1678 16.9355 33.9809 16.4708C34.7941 16.0062 35.8395 16.3547 36.3042 17.1678C36.7688 18.0971 36.4203 19.1426 35.6072 19.4911Z" fill="url(#paint2_linear_5_305)"/>
<path d="M39.3244 23.7891L36.885 25.0669C36.4204 25.2992 36.188 25.9962 36.4204 26.4608C36.6527 26.9255 37.3497 27.1578 37.8143 26.9255L40.2537 25.6477C40.7184 25.4154 40.9507 24.7184 40.7184 24.2537C40.4861 23.6729 39.7891 23.4406 39.3244 23.7891Z" fill="url(#paint3_linear_5_305)"/>
<path d="M41.88 28.5518L39.4406 29.8296C38.976 30.0619 38.7436 30.7589 38.976 31.2235C39.2083 31.6882 39.9053 31.9205 40.3699 31.6882L42.8093 30.4104C43.274 30.1781 43.5063 29.4811 43.274 29.0164C42.9255 28.5518 42.3447 28.3194 41.88 28.5518Z" fill="url(#paint4_linear_5_305)"/>
<defs>
<linearGradient id="paint0_linear_5_305" x1="0.0613449" y1="26.0595" x2="50.397" y2="26.0595" gradientUnits="userSpaceOnUse">
<stop stop-color="#FFC01E"/>
<stop offset="0.0838048" stop-color="#FFBB1B"/>
<stop offset="0.672" stop-color="#FF9C07"/>
<stop offset="1" stop-color="#FF9000"/>
</linearGradient>
<linearGradient id="paint1_linear_5_305" x1="6.47309" y1="31.0641" x2="36.7194" y2="31.0641" gradientUnits="userSpaceOnUse">
<stop stop-color="#FFC01E"/>
<stop offset="0.0838048" stop-color="#FFBB1B"/>
<stop offset="0.672" stop-color="#FF9C07"/>
<stop offset="1" stop-color="#FF9000"/>
</linearGradient>
<linearGradient id="paint2_linear_5_305" x1="31.0626" y1="18.0271" x2="38.5706" y2="18.0271" gradientUnits="userSpaceOnUse">
<stop stop-color="#FFC01E"/>
<stop offset="0.0838048" stop-color="#FFBB1B"/>
<stop offset="0.672" stop-color="#FF9C07"/>
<stop offset="1" stop-color="#FF9000"/>
</linearGradient>
<linearGradient id="paint3_linear_5_305" x1="36.3639" y1="25.292" x2="40.8335" y2="25.292" gradientUnits="userSpaceOnUse">
<stop stop-color="#FFC01E"/>
<stop offset="0.0838048" stop-color="#FFBB1B"/>
<stop offset="0.672" stop-color="#FF9C07"/>
<stop offset="1" stop-color="#FF9000"/>
</linearGradient>
<linearGradient id="paint4_linear_5_305" x1="38.885" y1="30.1355" x2="43.3547" y2="30.1355" gradientUnits="userSpaceOnUse">
<stop stop-color="#FFC01E"/>
<stop offset="0.0838048" stop-color="#FFBB1B"/>
<stop offset="0.672" stop-color="#FF9C07"/>
<stop offset="1" stop-color="#FF9000"/>
</linearGradient>
</defs>
</svg>
