<svg width="35" height="49" viewBox="0 0 35 49" fill="none" xmlns="http://www.w3.org/2000/svg">
<path d="M10.8736 31.5975C11.451 31.5975 11.9191 31.1294 11.9191 30.552C11.9191 29.9746 11.451 29.5066 10.8736 29.5066C10.2962 29.5066 9.82812 29.9746 9.82812 30.552C9.82812 31.1294 10.2962 31.5975 10.8736 31.5975Z" fill="url(#paint0_linear_5_321)"/>
<path d="M14.8233 44.7239C15.4041 44.6077 15.6364 44.0269 15.5202 43.4461L12.7323 33.4561C12.6161 32.8753 12.0353 32.643 11.4545 32.7591C10.8737 32.8753 10.6414 33.4561 10.7576 34.0369L13.5454 44.0269C13.7778 44.6077 14.3586 44.9562 14.8233 44.7239Z" fill="url(#paint1_linear_5_321)"/>
<path d="M26.6718 1.1628C26.5556 0.814315 26.2072 0.698151 25.8587 0.698151C25.5102 0.698151 25.1617 0.814313 24.9293 1.04664C24.3485 1.85978 21.096 6.04165 20.9798 8.01642C20.8637 9.17805 21.3283 10.3397 22.0253 11.269C21.5606 12.5468 21.2122 14.2892 20.7475 16.3802L17.2626 4.06688C17.1464 3.48606 16.5657 3.25374 15.9848 3.3699L9.59588 5.11234C9.01507 5.22851 8.7827 5.80932 8.89886 6.39014L13.0808 21.0267L10.7575 16.961L8.20191 12.6629C8.20191 12.6629 8.20187 12.6629 8.08571 12.5468L7.96957 12.4306C7.96957 12.4306 7.9696 12.4306 7.85344 12.3144L1.58061 8.01642C1.23212 7.78409 0.883602 7.78409 0.535114 8.01642C0.186625 8.24874 -0.0456588 8.59724 0.0705042 8.94572L0.651319 16.6125V16.7286C0.651319 16.7286 0.651319 16.7286 0.651319 16.8448C0.651319 16.8448 0.651319 16.8448 0.651319 16.961V17.0771L3.20692 21.3752L4.83316 24.2792C4.36851 24.5116 4.02006 24.8601 3.78773 25.3247C3.43924 25.9055 3.32307 26.7187 3.55539 27.4156C3.90388 28.4611 4.71702 29.2742 5.87865 29.3904L10.2928 45.0724C10.9898 47.3957 13.313 48.6735 15.6363 48.0926L31.5506 43.5623C33.8739 42.8653 35.1517 40.5421 34.5709 38.2188L30.2729 22.4206C30.5052 22.1883 30.7375 21.956 30.9698 21.6075C31.3183 21.0267 31.4345 20.2135 31.2022 19.5166C30.8537 18.3549 29.8082 17.5418 28.6466 17.5418C28.5304 15.3347 28.2981 13.3599 28.0658 11.7336C28.9951 11.0367 29.5759 9.87503 29.6921 8.7134C29.8082 6.73863 27.3688 2.4406 26.6718 1.1628ZM32.7123 38.6834C33.0608 39.8451 32.3638 41.1229 31.086 41.4714L15.1717 46.0017C14.0101 46.3502 12.7322 45.6532 12.3838 44.3754L7.96957 28.9258L28.2981 23.2338L32.7123 38.6834ZM14.0101 8.7134C14.1262 9.29421 14.707 9.52654 15.2878 9.41037L16.6818 9.06189L17.0303 10.2235L15.6363 10.572C15.0555 10.6882 14.8232 11.269 14.9394 11.8498C15.0555 12.4306 15.6363 12.6629 16.2171 12.5468L17.6111 12.1983L17.9596 13.3599L16.5657 13.7084C15.9848 13.8246 15.7525 14.4054 15.8686 14.9862C15.9848 15.567 16.5657 15.7993 17.1465 15.6832L18.4242 15.4508L18.7727 16.6125L17.3787 16.961C16.7979 17.0771 16.5656 17.6579 16.6818 18.2388C16.798 18.8196 17.3787 19.0519 17.9596 18.9357L19.3535 18.5873L19.8182 19.9812L15.404 21.259L11.3383 6.85479L15.7525 5.577L16.2171 6.97095L14.8232 7.31944C14.1262 7.66793 13.7777 8.24875 14.0101 8.7134ZM5.76245 26.3702C5.87861 26.254 5.99483 26.1378 6.11099 26.0217L28.4142 19.7489C28.7627 19.6327 29.1112 19.865 29.2274 20.2135C29.2274 20.3297 29.2274 20.562 29.2274 20.6782C29.1112 20.7943 28.9951 20.9105 28.8789 21.0267L6.5756 27.2995C6.22711 27.4156 5.87861 27.1833 5.76245 26.8348C5.64629 26.7187 5.64629 26.4863 5.76245 26.3702ZM24.9293 12.7791C25.2778 12.7791 25.6263 12.7791 25.9748 12.7791C26.2072 14.2892 26.4395 16.264 26.4395 18.2388L22.3738 19.4004C22.8385 16.4963 23.3031 14.2892 23.7677 12.6629C24.2324 12.6629 24.5809 12.7791 24.9293 12.7791ZM25.1617 10.6882C24.697 10.6882 24.2324 10.4558 23.8839 10.2235C23.3031 9.75886 22.9546 9.06188 22.9546 8.24874C23.0708 7.4356 24.2324 5.34467 25.5102 3.60223C26.5556 5.577 27.4849 7.78409 27.4849 8.59723C27.3688 9.41037 27.0203 10.1074 26.3233 10.4558C25.9748 10.6882 25.5102 10.8043 25.1617 10.6882ZM6.92408 23.6984L5.0655 20.4459L3.55539 17.7741C4.36853 17.6579 5.06547 17.4256 5.76245 16.961C6.45943 16.4963 7.04024 16.0317 7.50489 15.3347L9.01507 17.8903L11.4545 22.4206L6.92408 23.6984ZM4.71702 15.3347C4.13621 15.6832 3.32308 15.9155 2.6261 15.7993L2.27756 11.1528L6.11099 13.7084C5.7625 14.4054 5.29784 14.87 4.71702 15.3347Z" fill="url(#paint2_linear_5_321)"/>
<defs>
<linearGradient id="paint0_linear_5_321" x1="9.8107" y1="30.5413" x2="11.8681" y2="30.5413" gradientUnits="userSpaceOnUse">
<stop stop-color="#FFC01E"/>
<stop offset="0.0838048" stop-color="#FFBB1B"/>
<stop offset="0.672" stop-color="#FF9C07"/>
<stop offset="1" stop-color="#FF9000"/>
</linearGradient>
<linearGradient id="paint1_linear_5_321" x1="10.7095" y1="38.7513" x2="15.5979" y2="38.7513" gradientUnits="userSpaceOnUse">
<stop stop-color="#FFC01E"/>
<stop offset="0.0838048" stop-color="#FFBB1B"/>
<stop offset="0.672" stop-color="#FF9C07"/>
<stop offset="1" stop-color="#FF9000"/>
</linearGradient>
<linearGradient id="paint2_linear_5_321" x1="0.016601" y1="24.4078" x2="34.8516" y2="24.4078" gradientUnits="userSpaceOnUse">
<stop stop-color="#FFC01E"/>
<stop offset="0.0838048" stop-color="#FFBB1B"/>
<stop offset="0.672" stop-color="#FF9C07"/>
<stop offset="1" stop-color="#FF9000"/>
</linearGradient>
</defs>
</svg>
