<svg width="36" height="38" viewBox="0 0 36 38" fill="none" xmlns="http://www.w3.org/2000/svg">
<path d="M11.3003 32.2168C7.46691 30.4744 4.44668 27.338 2.93656 23.3884C1.42644 19.4389 1.54261 15.0247 3.40121 11.1913C6.76994 3.87304 15.2498 0.155798 22.8004 2.71138C26.8661 4.10534 30.1187 6.89325 32.0935 10.8428C33.9521 14.6762 34.1844 19.0904 32.7904 23.0399C32.6743 23.5046 32.9066 23.9692 33.2551 24.0854C33.4874 24.2016 33.7197 24.2016 33.9521 24.0854C34.1844 23.9692 34.3006 23.853 34.4167 23.6207C36.043 18.9742 35.6945 13.8631 33.3713 9.56503C31.048 5.15084 27.0985 2.01443 22.2196 0.736635C14.4367 -1.3543 6.07296 2.36292 2.35574 9.44886C0.0324846 13.8631 -0.432167 18.8581 1.19411 23.5046C2.8204 28.1511 6.18912 31.8683 10.6033 33.8431C10.8356 33.9592 11.068 33.9592 11.1841 33.8431C11.4165 33.7269 11.5326 33.6108 11.6488 33.3784C11.8811 32.9138 11.6488 32.333 11.3003 32.2168Z" fill="url(#paint0_linear_5_338)"/>
<path d="M30.9318 29.8936L29.3055 29.1966C29.3055 28.9643 29.3055 28.8481 29.3055 28.6158L30.9318 27.9188C31.3965 27.6865 31.5126 27.2218 31.3965 26.7572L30.2348 24.0854C30.0025 23.6208 29.5379 23.5046 29.0732 23.6207L27.4469 24.3177C27.3308 24.2016 27.2146 24.0854 27.0984 23.9692L27.7954 22.343C28.0277 21.8783 27.7954 21.4137 27.3308 21.1813L24.659 20.1358C24.1944 19.9035 23.7297 20.1359 23.4974 20.6005L22.8004 22.2268C22.6842 22.2268 22.4519 22.2268 22.3357 22.2268L21.6388 20.6005C21.4064 20.1359 20.9418 20.0197 20.4771 20.1358L17.8054 21.2975C17.3407 21.5298 17.2246 21.9945 17.3407 22.4591L18.0377 24.0854C17.9216 24.2016 17.8054 24.3177 17.6892 24.4339L16.063 23.7369C15.5983 23.5046 15.1336 23.7369 14.9013 24.2016L13.8559 26.8733C13.6235 27.338 13.8559 27.8026 14.3205 28.0349L15.9468 28.7319C15.9468 28.8481 15.9468 29.0804 15.9468 29.3127L14.3205 30.0097C13.8559 30.242 13.7397 30.7067 13.8559 31.1713L15.0175 33.8431C15.2498 34.3078 15.7145 34.4239 16.1791 34.3077L17.8054 33.6108C17.9216 33.7269 18.0377 33.8431 18.1539 33.9593L17.4569 35.5855C17.2246 36.0502 17.4569 36.5148 17.9216 36.7472L20.5933 37.7926C21.058 38.025 21.5226 37.7926 21.7549 37.328L22.4519 35.7017C22.6842 35.7017 22.8004 35.7017 23.0327 35.7017L23.7297 37.328C23.962 37.7926 24.4267 37.9088 24.8913 37.7926L27.5631 36.631C28.0277 36.3987 28.1439 35.934 28.0277 35.4694L27.3308 33.8431C27.4469 33.7269 27.5631 33.6108 27.6792 33.4946L29.3055 34.1916C29.7702 34.4239 30.2348 34.1916 30.4672 33.7269L31.5126 31.0552C31.6288 30.5905 31.3965 30.1259 30.9318 29.8936ZM26.6338 31.9845C26.4015 32.333 26.053 32.6815 25.7045 33.0299C25.356 33.2623 25.2398 33.7269 25.4721 34.0754L26.053 35.4694L24.8913 35.934L24.3105 34.5401C24.1944 34.1916 23.7297 33.9592 23.3812 34.0754C22.9166 34.1916 22.4519 34.1916 21.9873 34.0754C21.6388 34.0754 21.1741 34.1916 21.058 34.6562L20.4771 36.0502L19.3155 35.5855L19.8963 34.1916C20.0125 33.8431 19.8963 33.3784 19.664 33.1461C19.3155 32.9138 18.967 32.5653 18.6185 32.2168C18.3862 31.8683 17.9216 31.7522 17.5731 31.9845L16.1791 32.5653L15.7145 31.4037L17.1084 30.8229C17.4569 30.7067 17.6892 30.2421 17.5731 29.8936C17.4569 29.4289 17.4569 28.9642 17.5731 28.4996C17.5731 28.1511 17.4569 27.6865 16.9922 27.5703L15.5983 26.9895L16.063 25.8279L17.4569 26.4087C17.8054 26.5248 18.27 26.4087 18.5024 26.1763C18.7347 25.8278 19.0832 25.4794 19.4317 25.1309C19.7802 24.8985 19.8963 24.4339 19.664 24.0854L19.0832 22.6914L20.2448 22.2268L20.8256 23.6207C20.9418 23.9692 21.4064 24.2016 21.7549 24.0854C22.2196 23.9693 22.6842 23.9693 23.1489 24.0854C23.4974 24.0854 23.962 23.9693 24.0782 23.5046L24.659 22.1106L25.8206 22.5753L25.2398 23.9692C25.1237 24.3177 25.2398 24.7824 25.4721 25.0147C25.8206 25.247 26.1691 25.5955 26.5176 25.944C26.7499 26.2925 27.2146 26.4087 27.5631 26.1763L28.957 25.5955L29.4217 26.7572L28.0277 27.338C27.6793 27.4541 27.4469 27.9188 27.5631 28.2673C27.6792 28.7319 27.6792 29.1966 27.5631 29.6612C27.5631 30.0097 27.6792 30.4744 28.1439 30.5905L29.5378 31.1713L29.0732 32.333L27.6792 31.7521C27.3308 31.5198 26.8661 31.636 26.6338 31.9845Z" fill="url(#paint1_linear_5_338)"/>
<path d="M23.7297 26.2925C22.2196 25.7117 20.361 26.4086 19.7802 28.0349C19.1994 29.545 19.8963 31.4036 21.5226 31.9845C23.1489 32.5653 24.8914 31.8683 25.4722 30.242C26.053 28.6157 25.356 26.8733 23.7297 26.2925ZM23.8459 29.545C23.6136 30.242 22.8004 30.5905 22.1034 30.242C21.4065 29.8935 21.058 29.1965 21.4065 28.4996C21.755 27.8026 22.4519 27.4541 23.1489 27.8026C23.8459 28.1511 24.1944 28.848 23.8459 29.545Z" fill="url(#paint2_linear_5_338)"/>
<path d="M23.7297 5.03466C23.962 4.57001 23.7297 4.10535 23.2651 3.87303C22.8004 3.6407 22.3358 3.87306 22.1034 4.33771L21.8711 5.03466C21.6388 5.49931 21.8711 5.96396 22.3358 6.19629C22.8004 6.42861 23.2651 6.1963 23.4974 5.73164L23.7297 5.03466Z" fill="url(#paint3_linear_5_338)"/>
<path d="M15.5983 5.26698C15.7145 5.26698 15.7145 5.38315 15.8306 5.38315C15.9468 5.38315 16.063 5.49932 16.2953 5.38315C16.5276 5.38315 16.7599 5.26697 16.8761 5.03464C16.9923 4.80232 17.1084 4.56999 16.9923 4.45383L16.8761 3.75688C16.8761 3.52455 16.7599 3.29223 16.5276 3.17606C16.2953 3.0599 16.0629 2.94373 15.9468 3.05989C15.4821 3.17606 15.1336 3.52453 15.2498 3.98918L15.366 4.68617C15.2498 4.9185 15.366 5.15082 15.5983 5.26698Z" fill="url(#paint4_linear_5_338)"/>
<path d="M8.86086 7.24177L9.32552 7.82258C9.44168 7.93875 9.55785 8.05489 9.67401 8.05489C9.79017 8.05489 9.79017 8.05489 9.90633 8.05489C10.1387 8.05489 10.371 8.05491 10.4871 7.82258C10.6033 7.59026 10.8356 7.47409 10.8356 7.24177C10.8356 7.00944 10.8356 6.77712 10.6033 6.66095L10.1387 6.08014C10.0225 5.84781 9.79016 5.73163 9.55784 5.73163C9.32551 5.73163 9.09319 5.73164 8.97702 5.96397C8.7447 6.08013 8.62854 6.31246 8.62854 6.54478C8.62854 6.77711 8.7447 7.00944 8.86086 7.24177Z" fill="url(#paint5_linear_5_338)"/>
<path d="M5.6083 11.5398C5.14365 11.3075 4.679 11.5398 4.44667 12.0044C4.21435 12.4691 4.44667 12.9337 4.91132 13.1661L5.6083 13.3984C6.07296 13.6307 6.53761 13.3984 6.76993 12.9338C7.00226 12.4691 6.76993 12.0044 6.30528 11.7721L5.6083 11.5398Z" fill="url(#paint6_linear_5_338)"/>
<path d="M4.21435 20.1358C4.33052 20.1358 4.44668 20.252 4.67901 20.1358L5.37598 20.0197C5.84064 19.9035 6.18912 19.555 6.07296 19.0904C5.9568 18.6257 5.60831 18.2772 5.14366 18.3934L4.44668 18.5096C3.98203 18.6257 3.63354 18.9742 3.7497 19.4389C3.63354 19.6712 3.86586 20.0197 4.21435 20.1358Z" fill="url(#paint7_linear_5_338)"/>
<path d="M6.53762 26.2925C6.65378 26.4086 6.76995 26.5248 6.88611 26.5248C7.11844 26.641 7.46692 26.641 7.69925 26.4087L8.28006 25.944C8.62855 25.5955 8.74472 25.1308 8.39623 24.7823C8.28006 24.55 8.04774 24.4339 7.81541 24.4339C7.58309 24.4339 7.35076 24.4339 7.2346 24.6662L6.65378 25.1309C6.42146 25.247 6.3053 25.4793 6.3053 25.7117C6.42146 25.8278 6.42146 26.0602 6.53762 26.2925Z" fill="url(#paint8_linear_5_338)"/>
<path d="M31.8611 14.6762C31.6288 14.5601 31.3965 14.4439 31.2803 14.56L30.5834 14.6762C30.351 14.6762 30.1187 14.7924 30.0025 15.0247C29.8864 15.257 29.7702 15.4893 29.8864 15.6055C29.8864 15.8378 30.0025 16.0702 30.2349 16.1863C30.351 16.1863 30.351 16.3025 30.4672 16.3025C30.5833 16.3025 30.6995 16.4187 30.9318 16.3025L31.6288 16.1863C31.8611 16.1863 32.0935 16.0702 32.2096 15.8378C32.3258 15.6055 32.442 15.3732 32.3258 15.257C32.2096 15.0247 32.0935 14.9085 31.8611 14.6762Z" fill="url(#paint9_linear_5_338)"/>
<path d="M28.7247 8.0549C28.4924 8.0549 28.2601 8.05492 28.1439 8.28724L27.5631 8.75189C27.2146 9.10037 27.0984 9.56503 27.4469 9.91352C27.5631 10.0297 27.6792 10.1459 27.7954 10.1459C27.9116 10.1459 27.9116 10.1459 28.0277 10.1459C28.2601 10.1459 28.4924 10.1458 28.6086 9.91352L29.1894 9.44887C29.5379 9.10038 29.654 8.63573 29.3055 8.28724C29.1894 8.17108 28.957 8.0549 28.7247 8.0549Z" fill="url(#paint10_linear_5_338)"/>
<path d="M19.8964 10.1458L17.2246 16.8833C17.1085 16.9994 17.1085 17.1156 16.8761 17.2318L13.3913 18.7419C13.1589 18.8581 13.0428 18.9742 12.9266 19.2065C12.8104 19.4389 12.8104 19.6712 12.9266 19.9035C13.0428 20.1359 13.1589 20.252 13.3913 20.3682C13.6236 20.4843 13.8559 20.4843 14.0882 20.3682L18.1539 18.6257C18.3863 18.5096 18.5024 18.3934 18.6186 18.1611L21.5227 10.8428C21.755 10.3781 21.5227 9.91349 21.058 9.68116C20.5934 9.44884 20.0125 9.68119 19.8964 10.1458Z" fill="url(#paint11_linear_5_338)"/>
<defs>
<linearGradient id="paint0_linear_5_338" x1="0.182451" y1="16.9802" x2="35.3695" y2="16.9802" gradientUnits="userSpaceOnUse">
<stop stop-color="#FFC01E"/>
<stop offset="0.0838048" stop-color="#FFBB1B"/>
<stop offset="0.672" stop-color="#FF9C07"/>
<stop offset="1" stop-color="#FF9000"/>
</linearGradient>
<linearGradient id="paint1_linear_5_338" x1="13.8266" y1="29.0717" x2="31.4784" y2="29.0717" gradientUnits="userSpaceOnUse">
<stop stop-color="#FFC01E"/>
<stop offset="0.0838048" stop-color="#FFBB1B"/>
<stop offset="0.672" stop-color="#FF9C07"/>
<stop offset="1" stop-color="#FF9000"/>
</linearGradient>
<linearGradient id="paint2_linear_5_338" x1="19.616" y1="29.0713" x2="25.6881" y2="29.0713" gradientUnits="userSpaceOnUse">
<stop stop-color="#FFC01E"/>
<stop offset="0.0838048" stop-color="#FFBB1B"/>
<stop offset="0.672" stop-color="#FF9C07"/>
<stop offset="1" stop-color="#FF9000"/>
</linearGradient>
<linearGradient id="paint3_linear_5_338" x1="21.8572" y1="5.05267" x2="23.8333" y2="5.05267" gradientUnits="userSpaceOnUse">
<stop stop-color="#FFC01E"/>
<stop offset="0.0838048" stop-color="#FFBB1B"/>
<stop offset="0.672" stop-color="#FF9C07"/>
<stop offset="1" stop-color="#FF9000"/>
</linearGradient>
<linearGradient id="paint4_linear_5_338" x1="15.1371" y1="4.24418" x2="16.9471" y2="4.24418" gradientUnits="userSpaceOnUse">
<stop stop-color="#FFC01E"/>
<stop offset="0.0838048" stop-color="#FFBB1B"/>
<stop offset="0.672" stop-color="#FF9C07"/>
<stop offset="1" stop-color="#FF9000"/>
</linearGradient>
<linearGradient id="paint5_linear_5_338" x1="8.66862" y1="6.94553" x2="10.8245" y2="6.94553" gradientUnits="userSpaceOnUse">
<stop stop-color="#FFC01E"/>
<stop offset="0.0838048" stop-color="#FFBB1B"/>
<stop offset="0.672" stop-color="#FF9C07"/>
<stop offset="1" stop-color="#FF9000"/>
</linearGradient>
<linearGradient id="paint6_linear_5_338" x1="4.45434" y1="12.4327" x2="6.83615" y2="12.4327" gradientUnits="userSpaceOnUse">
<stop stop-color="#FFC01E"/>
<stop offset="0.0838048" stop-color="#FFBB1B"/>
<stop offset="0.672" stop-color="#FF9C07"/>
<stop offset="1" stop-color="#FF9000"/>
</linearGradient>
<linearGradient id="paint7_linear_5_338" x1="3.62331" y1="19.2352" x2="6.04996" y2="19.2352" gradientUnits="userSpaceOnUse">
<stop stop-color="#FFC01E"/>
<stop offset="0.0838048" stop-color="#FFBB1B"/>
<stop offset="0.672" stop-color="#FF9C07"/>
<stop offset="1" stop-color="#FF9000"/>
</linearGradient>
<linearGradient id="paint8_linear_5_338" x1="6.39927" y1="25.5308" x2="8.67583" y2="25.5308" gradientUnits="userSpaceOnUse">
<stop stop-color="#FFC01E"/>
<stop offset="0.0838048" stop-color="#FFBB1B"/>
<stop offset="0.672" stop-color="#FF9C07"/>
<stop offset="1" stop-color="#FF9000"/>
</linearGradient>
<linearGradient id="paint9_linear_5_338" x1="29.8205" y1="15.4501" x2="32.247" y2="15.4501" gradientUnits="userSpaceOnUse">
<stop stop-color="#FFC01E"/>
<stop offset="0.0838048" stop-color="#FFBB1B"/>
<stop offset="0.672" stop-color="#FF9C07"/>
<stop offset="1" stop-color="#FF9000"/>
</linearGradient>
<linearGradient id="paint10_linear_5_338" x1="27.1942" y1="9.15439" x2="29.4705" y2="9.15439" gradientUnits="userSpaceOnUse">
<stop stop-color="#FFC01E"/>
<stop offset="0.0838048" stop-color="#FFBB1B"/>
<stop offset="0.672" stop-color="#FF9C07"/>
<stop offset="1" stop-color="#FF9000"/>
</linearGradient>
<linearGradient id="paint11_linear_5_338" x1="12.8704" y1="14.9619" x2="21.5387" y2="14.9619" gradientUnits="userSpaceOnUse">
<stop stop-color="#FFC01E"/>
<stop offset="0.0838048" stop-color="#FFBB1B"/>
<stop offset="0.672" stop-color="#FF9C07"/>
<stop offset="1" stop-color="#FF9000"/>
</linearGradient>
</defs>
</svg>
