<svg width="165" height="96" viewBox="0 0 165 96" fill="none" xmlns="http://www.w3.org/2000/svg">
<g clip-path="url(#clip0_39_4640)">
<path d="M27.97 63.5272C27.97 63.5272 138.811 62.7807 160.994 68.3048C164.184 24.5598 164.184 24.5598 164.184 24.5598L134.582 0.895752L34.5729 2.6127L27.97 63.5272Z" stroke="#DDDDDD" stroke-width="2.3411" stroke-miterlimit="10" stroke-linecap="round" stroke-linejoin="round"/>
<path d="M129.018 89.8039C140.443 100.777 158.026 83.4586 146.527 72.4104C135.175 61.4369 117.518 78.7557 129.018 89.8039Z" stroke="#DDDDDD" stroke-miterlimit="10"/>
<path d="M47.1111 91.2971C62.7653 93.6859 67.2167 69.35 51.4883 66.9612C35.9083 64.5724 31.4568 88.9083 47.1111 91.2971Z" stroke="#DDDDDD" stroke-miterlimit="10"/>
<path d="M52.3786 92.342C68.9974 87.9377 63.8782 64.8708 47.1111 69.2751C30.5666 73.6795 35.6858 96.7464 52.3786 92.342Z" stroke="#DDDDDD" stroke-width="2.3411" stroke-miterlimit="10" stroke-linecap="round" stroke-linejoin="round"/>
<path d="M50.3013 82.9362C53.4173 82.1151 52.4528 77.7853 49.3368 78.6065C46.1466 79.4276 47.1111 83.7574 50.3013 82.9362Z" stroke="#DDDDDD" stroke-width="2.3411" stroke-miterlimit="10" stroke-linecap="round" stroke-linejoin="round"/>
<path d="M130.947 92.342C145.265 101.972 158.991 82.7868 144.672 73.1569C130.353 63.6017 116.554 82.7121 130.947 92.342Z" stroke="#DDDDDD" stroke-width="2.3411" stroke-miterlimit="10" stroke-linecap="round" stroke-linejoin="round"/>
<path d="M136.14 85.1011C139.627 87.4152 142.965 82.7869 139.479 80.4728C135.992 78.084 132.579 82.7869 136.14 85.1011Z" stroke="#DDDDDD" stroke-width="2.3411" stroke-miterlimit="10" stroke-linecap="round" stroke-linejoin="round"/>
<path d="M137.327 11.3469L157.878 28.9643L157.581 41.5802L122.563 40.8336L123.157 11.2722L137.327 11.3469Z" stroke="#DDDDDD" stroke-width="2.3411" stroke-miterlimit="10" stroke-linecap="round" stroke-linejoin="round"/>
<path d="M115.144 10.8989L40.9533 11.944L38.2083 41.8787L114.402 42.1773L115.144 10.8989Z" stroke="#DDDDDD" stroke-width="2.3411" stroke-miterlimit="10" stroke-linecap="round" stroke-linejoin="round"/>
<path d="M89.3255 11.2722L87.5449 42.1027" stroke="#DDDDDD" stroke-width="2.3411" stroke-miterlimit="10" stroke-linecap="round" stroke-linejoin="round"/>
<path d="M59.5752 11.72L57.127 41.9533" stroke="#DDDDDD" stroke-width="2.3411" stroke-miterlimit="10" stroke-linecap="round" stroke-linejoin="round"/>
<path d="M126.866 94.507C125.53 94.507 124.195 94.4324 122.934 94.4324C122.563 94.4324 122.192 94.731 122.192 95.1789C122.192 95.5521 122.489 95.9254 122.934 95.9254C124.269 95.9254 125.605 96 126.866 96C127.237 96 127.608 95.7014 127.608 95.2535C127.534 94.8803 127.237 94.5817 126.866 94.507Z" fill="#DDDDDD"/>
<path d="M120.708 84.9517C119.224 84.6531 117.74 84.2798 116.257 83.9812C115.886 83.9066 115.441 84.0559 115.366 84.5038C115.292 84.877 115.441 85.3249 115.886 85.3996C117.37 85.6982 118.853 86.0714 120.337 86.37C120.708 86.4447 121.153 86.2954 121.227 85.8475C121.302 85.5489 121.079 85.0263 120.708 84.9517Z" fill="#DDDDDD"/>
<path d="M121.005 89.2815C119.521 89.2815 117.963 89.2815 116.479 89.2815C116.109 89.2815 115.738 89.5801 115.738 90.028C115.738 90.4012 116.034 90.7745 116.479 90.7745C117.963 90.7745 119.521 90.7745 121.005 90.7745C121.376 90.7745 121.747 90.4759 121.747 90.028C121.673 89.6547 121.376 89.2815 121.005 89.2815Z" fill="#DDDDDD"/>
<path d="M31.1601 79.5769C29.6021 79.7262 28.0441 79.7262 26.5603 79.6515C26.1893 79.6515 25.8184 79.9501 25.8184 80.398C25.8184 80.8459 26.1151 81.1445 26.5603 81.1445C28.2667 81.2938 29.8988 81.2192 31.531 81.0699C31.902 80.9952 32.1988 80.5473 32.0504 80.1741C31.9762 79.7262 31.531 79.5022 31.1601 79.5769Z" fill="#DDDDDD"/>
<path d="M30.5665 83.6826C28.5634 83.6826 26.5602 83.7573 24.5571 83.7573C24.1861 83.7573 23.8152 84.0559 23.8152 84.5038C23.8152 84.877 24.1119 85.2503 24.5571 85.2503C26.5602 85.2503 28.5634 85.1756 30.5665 85.1756C30.9375 85.1756 31.3084 84.877 31.3084 84.4291C31.3084 84.0559 30.9375 83.6826 30.5665 83.6826Z" fill="#DDDDDD"/>
<path d="M33.3858 89.7293C31.2343 89.58 29.1569 89.5054 27.0054 89.5054C26.0409 89.5054 25.9667 90.9984 26.9312 90.9984C29.0828 90.9984 31.1601 91.073 33.3116 91.2223C33.6826 91.2223 34.0535 90.9237 34.0535 90.4758C34.1277 90.1026 33.7568 89.804 33.3858 89.7293Z" fill="#DDDDDD"/>
<path d="M19.1412 12.2425C16.2478 11.4213 13.3543 10.8988 10.3867 10.6748C9.42224 10.6002 9.42224 12.0932 10.3125 12.1678C13.1318 12.3918 15.951 12.9143 18.6961 13.6608C19.5864 13.9594 20.0315 12.4664 19.1412 12.2425Z" fill="#DDDDDD"/>
<path d="M16.9155 25.381C11.4996 25.0824 6.15786 24.8584 0.741944 24.5598C-0.222534 24.4852 -0.222534 25.9782 0.667754 26.0528C6.08367 26.3514 11.4254 26.5754 16.8413 26.874C17.8058 26.874 17.88 25.381 16.9155 25.381Z" fill="#DDDDDD"/>
<path d="M13.1317 45.5365C10.6092 45.9098 8.0867 46.283 5.56422 46.6563C5.19326 46.7309 4.8965 47.1788 5.04488 47.5521C5.11907 48 5.56422 48.1493 5.93517 48.0746C8.45765 47.7014 10.9801 47.3281 13.5026 46.9549C13.8736 46.8802 14.1703 46.4323 14.0219 46.0591C13.9478 45.6858 13.5768 45.4619 13.1317 45.5365Z" fill="#DDDDDD"/>
</g>
<defs>
<clipPath id="clip0_39_4640">
<rect width="165" height="96" fill="white"/>
</clipPath>
</defs>
</svg>
