<svg width="48" height="42" viewBox="0 0 48 42" fill="none" xmlns="http://www.w3.org/2000/svg">
<path d="M27.8256 12.7543C23.2952 10.5472 17.8355 12.4058 15.6284 16.9362C13.4214 21.4665 15.28 26.9262 19.8104 29.1333C24.3407 31.3404 29.8004 29.4818 32.0075 24.9514C34.2146 20.4211 32.3559 14.9614 27.8256 12.7543ZM20.6235 27.3908C17.1386 25.6484 15.6284 21.3504 17.3709 17.8655C19.1133 14.3806 23.4114 12.8705 26.8963 14.6129C30.3812 16.3553 31.8913 20.6534 30.1488 24.1383C28.5225 27.6232 24.2246 29.1333 20.6235 27.3908Z" fill="url(#paint0_linear_5_331)"/>
<path d="M25.967 16.5877C23.5276 15.426 20.6236 16.4715 19.4619 18.7947C18.3003 21.118 19.3457 24.1383 21.669 25.2999C24.1084 26.4615 27.0125 25.4161 28.1742 23.0928C29.3358 20.7695 28.2903 17.7493 25.967 16.5877ZM26.3155 22.2796C25.6185 23.6736 23.9923 24.2544 22.4821 23.5574C21.0882 22.8605 20.5074 21.2342 21.2044 19.7241C21.9014 18.3301 23.5276 17.7493 25.0377 18.4463C26.4317 19.1433 27.0125 20.8857 26.3155 22.2796Z" fill="url(#paint1_linear_5_331)"/>
<path d="M14.4669 1.71878C12.1436 0.557148 9.47188 1.6026 8.31025 3.8097L0.759656 19.2594C-0.285811 21.3503 -0.169662 25.416 2.26976 26.6938L32.4721 41.4465C34.9116 42.6081 38.1642 40.2849 39.2096 38.0778L46.7602 22.6281C47.9219 20.3049 46.8763 17.6331 44.6692 16.4715L39.9066 14.1482V8.68856C39.9066 8.34007 39.6743 7.99156 39.3258 7.75923L24.6893 0.557148C24.3408 0.440985 23.9923 0.440956 23.6438 0.673282L19.3457 4.04204L14.4669 1.71878ZM24.3407 2.76424L37.8157 9.38551V14.8452C37.8157 14.9613 37.8157 15.0775 37.8157 15.1937C37.9318 15.3098 37.9318 15.426 37.9318 15.5422C37.9318 15.5422 37.9319 15.5422 38.048 15.6583C38.1642 15.7745 38.2803 15.7745 38.2803 15.8906L43.6238 18.4462C44.9016 19.0271 45.4824 20.6533 44.7854 21.9311L37.2349 37.3808C36.5379 38.7747 34.3308 40.2849 33.1692 39.8202L2.96678 25.0675C1.80515 24.4867 1.68899 21.8149 2.38597 20.421L9.93656 4.97133C10.5174 3.69353 12.1437 3.11272 13.4214 3.8097L31.4267 12.6381C31.8914 12.8704 32.5884 12.6381 32.8207 12.1734C33.053 11.7088 32.8207 11.0118 32.356 10.7795L21.0882 5.3198L24.3407 2.76424Z" fill="url(#paint2_linear_5_331)"/>
<defs>
<linearGradient id="paint0_linear_5_331" x1="14.6267" y1="20.9968" x2="32.9437" y2="20.9968" gradientUnits="userSpaceOnUse">
<stop stop-color="#FFC01E"/>
<stop offset="0.0838048" stop-color="#FFBB1B"/>
<stop offset="0.672" stop-color="#FF9C07"/>
<stop offset="1" stop-color="#FF9000"/>
</linearGradient>
<linearGradient id="paint1_linear_5_331" x1="18.9286" y1="20.9969" x2="28.6419" y2="20.9969" gradientUnits="userSpaceOnUse">
<stop stop-color="#FFC01E"/>
<stop offset="0.0838048" stop-color="#FFBB1B"/>
<stop offset="0.672" stop-color="#FF9C07"/>
<stop offset="1" stop-color="#FF9000"/>
</linearGradient>
<linearGradient id="paint2_linear_5_331" x1="0.152003" y1="21.1685" x2="47.253" y2="21.1685" gradientUnits="userSpaceOnUse">
<stop stop-color="#FFC01E"/>
<stop offset="0.0838048" stop-color="#FFBB1B"/>
<stop offset="0.672" stop-color="#FF9C07"/>
<stop offset="1" stop-color="#FF9000"/>
</linearGradient>
</defs>
</svg>
