<svg width="92" height="93" viewBox="0 0 92 93" fill="none" xmlns="http://www.w3.org/2000/svg">
<path d="M58.3154 27.739C58.5659 26.889 58.0957 25.8902 57.2456 25.6397C56.3956 25.3892 55.3968 25.8594 55.1463 26.7095C54.8958 27.5595 55.366 28.5582 56.216 28.8088C57.0661 29.0593 58.0648 28.5891 58.3154 27.739Z" fill="url(#paint0_linear_10_1495)"/>
<path d="M45.0865 21.9286C44.2365 21.6781 43.2377 22.1483 42.9872 22.9984C42.7367 23.8484 43.2069 24.8472 44.0569 25.0977C44.907 25.3482 45.9057 24.878 46.1563 24.0279C46.5086 23.0486 45.9365 22.1792 45.0865 21.9286Z" fill="url(#paint1_linear_10_1495)"/>
<path d="M69.7041 58.4932C71.0826 57.2747 72.277 55.4923 72.778 53.7922C73.5296 51.2421 73.2 48.4689 71.8717 46.166C72.5845 45.261 73.0661 44.3835 73.391 43.1731C74.3931 39.7729 73.5933 36.001 71.0546 33.3732C72.4914 29.687 71.2019 25.7389 67.8956 23.5538C67.4562 19.8562 64.9643 16.6369 61.5642 15.6348C58.6537 14.8089 55.4458 15.4245 53.0959 17.3442C52.0731 14.6535 49.9222 12.3311 47.0117 11.5051C43.6115 10.503 39.7653 11.6632 37.2942 14.5348C33.4124 14.4102 30.0913 17.0314 29.1441 20.8937C25.7051 21.5367 22.7443 24.2322 21.7422 27.6324C21.3899 28.6117 21.2961 29.7946 21.3041 30.8483C18.9737 31.9455 17.1135 34.0415 16.2327 36.4898C15.6298 38.3191 15.6459 40.4265 16.1985 42.1185C14.8199 43.337 13.6999 44.7591 13.1989 46.4591C12.5217 48.6489 12.6945 51.0892 13.7917 53.4196C12.6797 55.8953 12.5471 58.7234 13.6717 61.2849C14.7964 63.8465 16.7631 65.6048 19.2114 66.4857C20.113 70.1283 22.781 72.858 26.3104 73.9619C29.7106 74.964 33.4825 74.1642 36.2396 71.7273C37.1412 75.37 39.8092 78.0996 43.2369 79.3328C46.7663 80.4367 50.5382 79.637 53.2953 77.2C58.0352 78.6289 63.3069 75.6588 64.9394 70.6603C65.0137 70.3 65.0881 69.9396 65.2642 69.4499C67.4654 68.2509 68.9926 66.3117 69.6699 64.1219C70.2453 62.0615 70.1549 60.3145 69.7041 58.4932ZM62.0403 67.9582C61.9934 68.5496 61.919 68.91 61.8447 69.2704C61.3436 70.9705 59.9925 72.42 58.2261 73.333C56.6634 73.9875 55.1475 74.0504 53.9096 73.4944L53.7803 73.3926C53.1614 73.1146 52.3663 73.3263 51.8297 73.7416C49.9695 75.8376 47.0202 76.6568 44.3408 75.8034C40.5803 74.7269 38.5426 70.399 39.7209 66.5092C40.8991 62.6194 44.996 60.6092 48.7565 61.6856C49.6065 61.9362 50.6053 61.4659 50.8558 60.6159C51.1063 59.7659 50.6361 58.7671 49.7861 58.5166C47.2359 57.765 44.4353 57.8635 42.0031 59.0899L48.8771 37.0633C49.202 35.8529 50.4319 35.3552 51.513 35.5782C52.363 35.8288 53.3618 35.3585 53.6123 34.5085C53.8628 33.6585 53.3926 32.6597 52.5426 32.4092C51.8218 32.2605 51.1011 32.1118 50.4078 32.1941L53.2185 23.3059C54.2481 20.1369 57.7534 18.0798 60.7932 19.0075C62.364 19.4067 63.5824 20.7853 64.3661 22.4499C62.9521 22.3836 61.4637 22.6776 60.132 23.3046C59.3644 23.7474 59.012 24.7267 59.4548 25.4943C59.8976 26.262 60.8769 26.6143 61.6445 26.1716C62.7451 25.572 64.0299 25.5366 65.2403 25.8614C67.3557 26.899 68.684 29.202 68.1635 31.7246C63.1101 29.63 57.2469 32.5532 55.642 37.7827C55.3914 38.6328 55.8617 39.6315 56.7117 39.882C57.5617 40.1326 58.5605 39.6623 58.811 38.8123C59.8406 35.6432 63.3459 33.5861 66.3857 34.5139C69.4255 35.4416 71.1497 39.1037 70.1201 42.2728C69.7677 43.2521 69.2861 44.1296 68.5459 44.8035C67.9076 45.3481 67.9156 46.4017 68.3584 47.1694C69.7061 48.6498 70.0825 50.8315 69.609 52.7626C68.5794 55.9317 65.074 57.9888 62.0343 57.061C61.1842 56.8105 60.1855 57.2807 59.935 58.1308C59.6844 58.9808 60.1547 59.9796 61.0047 60.2301C62.8341 60.833 64.8121 60.7151 66.606 60.0332C66.7158 60.9576 66.6964 61.7801 66.3441 62.7595C65.843 64.4595 64.5937 65.7798 63.031 66.4342C62.4944 66.8496 62.0872 67.3667 62.0403 67.9582ZM43.0515 31.4278C42.801 32.2779 43.2712 33.2766 44.1212 33.5271C45.3316 33.852 45.8293 35.0819 45.6063 36.163L38.7322 58.1897C37.4039 55.8867 35.2061 54.1558 32.656 53.4042C31.806 53.1537 30.8072 53.6239 30.5567 54.474C30.3062 55.324 30.7764 56.3228 31.6264 56.5733C35.5162 57.7516 37.5264 61.8484 36.45 65.6089C35.2717 69.4987 31.1005 71.8693 27.34 70.7928C24.6606 69.9394 22.7408 67.5896 22.4113 64.8164C22.3289 64.1231 21.9136 63.5866 21.1928 63.4379L21.0635 63.336L20.8324 63.3635C19.2891 63.1954 17.8396 61.8443 17.0558 60.1797C16.1154 58.1822 16.3304 56.0474 17.2937 54.2924C17.5716 53.6734 17.6185 53.082 17.2032 52.5454C16.2159 51.1394 15.9962 49.2906 16.4972 47.5905C16.7477 46.7405 17.2294 45.863 17.8677 45.3184C18.9569 46.5951 20.5083 47.817 22.3376 48.4198C23.1877 48.6704 24.1864 48.2001 24.437 47.3501C24.6875 46.5 24.2173 45.5013 23.3672 45.2508C20.3274 44.323 18.6033 40.6609 19.6328 37.4919C20.3375 35.5332 21.6886 34.0837 23.741 33.6054C24.5361 33.3938 25.1196 32.387 24.9079 31.5919C24.6688 30.5657 24.6607 29.512 25.0131 28.5327C26.0427 25.3636 29.548 23.3065 32.5878 24.2343C35.6275 25.162 37.3517 28.8241 36.3222 31.9931C36.0716 32.8432 36.5419 33.8419 37.3919 34.0925C38.2419 34.343 39.2407 33.8728 39.4912 33.0227C41.0687 27.5621 37.9144 21.7264 32.638 20.7129C33.5463 18.4957 35.9786 17.2692 38.3994 17.9189C39.508 18.3731 40.5423 19.1876 41.1418 20.2882C41.2985 20.6211 41.6864 20.9266 42.176 21.1027C42.5364 21.1771 42.9986 21.1222 43.3315 20.9654C43.6644 20.8087 43.9699 20.4208 44.1461 19.9312C44.3222 19.4415 44.2673 18.9793 44.1106 18.6464C43.3818 17.444 42.4219 16.2691 41.0547 15.6113C42.5625 14.4947 44.4113 14.275 45.9821 14.6742C49.0219 15.602 50.7461 19.264 49.7165 22.4331L46.9058 31.3213C46.3887 30.914 45.6405 30.5342 45.0215 30.2563C44.2733 29.8764 43.4038 30.4485 43.0515 31.4278Z" fill="url(#paint2_linear_10_1495)"/>
<path d="M33.969 36.843C32.2609 35.2882 31.4966 32.8011 32.1738 30.6113C32.4243 29.7613 31.9541 28.7626 31.104 28.512C30.254 28.2615 29.2553 28.7317 29.0047 29.5818C27.7521 33.832 29.4569 38.3166 33.2254 40.4468C32.2816 41.3792 30.9225 41.7751 29.7121 41.4502C28.862 41.1997 27.8633 41.6699 27.6127 42.5199C27.3622 43.37 27.8324 44.3687 28.6825 44.6192C31.7223 45.547 34.8478 44.2381 36.5238 41.5781C38.1964 41.8481 40.0452 41.6284 41.7097 40.8447C42.0427 40.6879 42.3481 40.3001 42.6536 39.9122C42.8297 39.4226 42.7748 38.9604 42.6181 38.6275C42.2771 37.7305 41.2978 37.3782 40.4009 37.7192C38.1723 38.6871 35.6771 38.3977 33.969 36.843Z" fill="url(#paint3_linear_10_1495)"/>
<path d="M22.7268 55.639C21.8768 55.3885 20.878 55.8587 20.6275 56.7087C20.377 57.5588 20.8472 58.5575 21.6972 58.808C24.737 59.7358 26.4612 63.3979 25.4316 66.5669C25.1811 67.417 25.6513 68.4157 26.5014 68.6662C27.3514 68.9168 28.3502 68.4465 28.6007 67.5965C30.3349 62.4688 27.4667 57.0678 22.7268 55.639Z" fill="url(#paint4_linear_10_1495)"/>
<path d="M35.397 48.8601C31.3779 47.58 26.9402 48.6932 23.8776 51.518C23.5722 51.9058 23.3685 52.1644 23.3216 52.7559C23.3766 53.2181 23.4315 53.6803 23.8193 53.9857C24.0779 54.1893 24.3364 54.393 24.5675 54.3655C24.6968 54.4673 24.9279 54.4399 24.9279 54.4399C25.3901 54.3849 25.8523 54.33 26.1578 53.9422C28.3783 51.9206 31.5588 51.0739 34.3675 52.0291C35.2175 52.2796 36.2163 51.8094 36.4668 50.9594C36.7173 50.1093 36.2471 49.1106 35.397 48.8601Z" fill="url(#paint5_linear_10_1495)"/>
<path d="M57.8698 53.5719C58.7199 53.8225 59.7186 53.3522 59.9691 52.5022C60.2197 51.6522 59.7494 50.6534 58.8994 50.4029C57.5597 49.9762 56.7291 48.9031 56.4625 47.6458C60.8339 47.9465 64.7465 45.3723 66.1284 41.2239C66.379 40.3739 65.9087 39.3752 65.0587 39.1246C64.2087 38.8741 63.2099 39.3443 62.9594 40.1944C61.9298 43.3634 58.7299 45.0327 55.4591 44.1324C54.1194 43.7057 52.9558 42.7893 52.0978 41.4851C51.655 40.7175 50.5739 40.4944 49.8062 40.9372C49.3715 41.2232 49.1678 41.4818 48.9917 41.9714C48.9173 42.3318 48.9722 42.794 49.2583 43.2288C50.1438 44.7641 51.4641 46.0133 53.1916 46.7455C52.8553 49.8321 54.83 52.6442 57.8698 53.5719Z" fill="url(#paint6_linear_10_1495)"/>
<path d="M56.654 66.0202C51.7849 64.4896 46.5131 67.4597 44.8807 72.4581C44.6302 73.3081 45.1004 74.3069 45.9504 74.5574C46.8005 74.8079 47.7992 74.3377 48.0498 73.4876C49.0793 70.3186 52.5847 68.2615 55.6244 69.1892C56.4745 69.4398 57.4732 68.9695 57.7238 68.1195C57.9743 67.2695 57.504 66.2707 56.654 66.0202Z" fill="url(#paint7_linear_10_1495)"/>
<path d="M54.7537 62.8478C54.8086 63.31 55.0946 63.7447 55.455 63.8191C55.5843 63.9209 55.7135 64.0227 55.9446 63.9953C56.305 64.0696 56.5361 64.0422 56.7672 64.0147C57.2294 63.9598 57.6641 63.6737 57.7385 63.3134C58.044 62.9255 57.989 62.4633 57.9341 62.0011C56.9776 57.8963 53.9961 54.5008 49.977 53.2207C49.1269 52.9702 48.1282 53.4404 47.8777 54.2904C47.6271 55.1405 48.0974 56.1392 48.9474 56.3898C51.8854 57.4468 54.1655 59.871 54.7537 62.8478Z" fill="url(#paint8_linear_10_1495)"/>
<defs>
<linearGradient id="paint0_linear_10_1495" x1="55.4067" y1="26.1533" x2="58.0467" y2="28.2325" gradientUnits="userSpaceOnUse">
<stop stop-color="#FFC01E"/>
<stop offset="0.0838048" stop-color="#FFBB1B"/>
<stop offset="0.672" stop-color="#FF9C07"/>
<stop offset="1" stop-color="#FF9000"/>
</linearGradient>
<linearGradient id="paint1_linear_10_1495" x1="43.2862" y1="22.4073" x2="45.9262" y2="24.4865" gradientUnits="userSpaceOnUse">
<stop stop-color="#FFC01E"/>
<stop offset="0.0838048" stop-color="#FFBB1B"/>
<stop offset="0.672" stop-color="#FF9C07"/>
<stop offset="1" stop-color="#FF9000"/>
</linearGradient>
<linearGradient id="paint2_linear_10_1495" x1="21.1659" y1="27.0343" x2="69.8367" y2="65.366" gradientUnits="userSpaceOnUse">
<stop stop-color="#FFC01E"/>
<stop offset="0.0838048" stop-color="#FFBB1B"/>
<stop offset="0.672" stop-color="#FF9C07"/>
<stop offset="1" stop-color="#FF9000"/>
</linearGradient>
<linearGradient id="paint3_linear_10_1495" x1="25.8866" y1="33.3894" x2="39.4298" y2="44.0556" gradientUnits="userSpaceOnUse">
<stop stop-color="#FFC01E"/>
<stop offset="0.0838048" stop-color="#FFBB1B"/>
<stop offset="0.672" stop-color="#FF9C07"/>
<stop offset="1" stop-color="#FF9000"/>
</linearGradient>
<linearGradient id="paint4_linear_10_1495" x1="19.5942" y1="57.8011" x2="30.0698" y2="66.0514" gradientUnits="userSpaceOnUse">
<stop stop-color="#FFC01E"/>
<stop offset="0.0838048" stop-color="#FFBB1B"/>
<stop offset="0.672" stop-color="#FF9C07"/>
<stop offset="1" stop-color="#FF9000"/>
</linearGradient>
<linearGradient id="paint5_linear_10_1495" x1="26.1167" y1="48.6008" x2="33.7804" y2="54.6365" gradientUnits="userSpaceOnUse">
<stop stop-color="#FFC01E"/>
<stop offset="0.0838048" stop-color="#FFBB1B"/>
<stop offset="0.672" stop-color="#FF9C07"/>
<stop offset="1" stop-color="#FF9000"/>
</linearGradient>
<linearGradient id="paint6_linear_10_1495" x1="51.4549" y1="38.6619" x2="63.5167" y2="48.1614" gradientUnits="userSpaceOnUse">
<stop stop-color="#FFC01E"/>
<stop offset="0.0838048" stop-color="#FFBB1B"/>
<stop offset="0.672" stop-color="#FF9C07"/>
<stop offset="1" stop-color="#FF9000"/>
</linearGradient>
<linearGradient id="paint7_linear_10_1495" x1="47.9527" y1="67.6705" x2="54.3388" y2="72.7" gradientUnits="userSpaceOnUse">
<stop stop-color="#FFC01E"/>
<stop offset="0.0838048" stop-color="#FFBB1B"/>
<stop offset="0.672" stop-color="#FF9C07"/>
<stop offset="1" stop-color="#FF9000"/>
</linearGradient>
<linearGradient id="paint8_linear_10_1495" x1="47.8568" y1="54.2975" x2="58.4223" y2="62.6185" gradientUnits="userSpaceOnUse">
<stop stop-color="#FFC01E"/>
<stop offset="0.0838048" stop-color="#FFBB1B"/>
<stop offset="0.672" stop-color="#FF9C07"/>
<stop offset="1" stop-color="#FF9000"/>
</linearGradient>
</defs>
</svg>
