<svg width="649" height="417" viewBox="0 0 649 417" fill="none" xmlns="http://www.w3.org/2000/svg">
<path d="M90.7626 19.7114C83.4066 13.2749 76.1656 6.72349 68.8096 0.287003C67.6602 -0.632495 66.0511 0.86169 67.0855 1.89613C74.4415 8.33261 81.6826 14.884 89.0385 21.3205C90.073 22.24 91.797 20.7458 90.7626 19.7114Z" fill="#DDDDDD"/>
<path d="M605.682 45.3424C610.509 32.2396 620.164 21.2056 632.347 14.5392C633.611 13.8496 632.577 11.7807 631.313 12.4703C618.44 19.4815 608.555 30.9752 603.498 44.6528C602.923 46.032 605.107 46.7217 605.682 45.3424Z" fill="#DDDDDD"/>
<path d="M599.82 184.761C615.567 184.072 631.198 183.382 646.944 182.693C648.439 182.578 648.439 180.279 647.059 180.394C631.313 181.083 615.682 181.773 599.935 182.463C598.441 182.578 598.326 184.876 599.82 184.761Z" fill="#DDDDDD"/>
<path d="M595.567 368.776C604.762 378.891 614.876 388.2 625.796 396.361C626.945 397.28 628.209 395.327 627.06 394.407C616.256 386.247 606.371 377.166 597.291 367.167C596.257 366.132 594.533 367.742 595.567 368.776Z" fill="#DDDDDD"/>
<path d="M34.2135 184.187C23.0646 185.681 12.0306 187.29 0.881704 188.784C-0.612481 189.014 -0.0377946 191.198 1.34145 190.968C12.4904 189.474 23.5243 187.865 34.6733 186.37C36.1674 186.255 35.5928 183.957 34.2135 184.187Z" fill="#DDDDDD"/>
<path d="M84.0961 394.637C76.5102 401.188 68.8094 407.74 61.2235 414.291C60.0742 415.211 61.6833 416.935 62.8327 416.015C70.4185 409.464 78.1193 402.912 85.7052 396.361C86.8546 395.326 85.2454 393.602 84.0961 394.637Z" fill="#DDDDDD"/>
</svg>
