<svg width="182" height="155" viewBox="0 0 182 155" fill="none" xmlns="http://www.w3.org/2000/svg">
<g clip-path="url(#clip0_39_2867)">
<path d="M140.889 122.569C146.593 112.504 153.259 102.961 157.852 92.2993C159.111 89.3171 160.222 86.2603 161.111 83.129C161.185 82.8308 161.037 82.458 160.741 82.3089C154 78.432 147.111 74.7788 140.222 71.2002C131.778 66.8014 123.259 62.4772 114.741 58.2276C105.63 53.6797 96.4444 49.1319 87.2592 44.6586C78.5926 40.4089 69.9259 36.1593 61.1852 32.0588C53.9259 28.5547 46.5926 25.1251 39.3333 21.6956C38.5926 21.3228 37.8518 21.0246 37.037 20.6518C36.1481 20.2791 35.4074 21.5465 36.2963 21.9193C43.3333 25.1997 50.3704 28.5547 57.4074 31.9097C66 36.0102 74.5926 40.1107 83.1852 44.2858C92.3704 48.7591 101.556 53.2324 110.667 57.7803C119.333 62.1045 127.926 66.4287 136.519 70.902C143.704 74.6297 150.815 78.3575 157.852 82.3089C158.593 82.6817 159.333 83.129 160 83.5763C159.852 83.2781 159.778 82.9799 159.63 82.7562C156.593 93.8649 150.444 103.632 144.593 113.398C142.889 116.231 141.185 118.99 139.63 121.823C139.185 122.643 140.444 123.389 140.889 122.569Z" fill="#DDDDDD"/>
<path d="M35.6296 28.48C30.5926 40.6324 25.1111 52.6358 19.3333 64.4155C17.7037 67.7705 16 71.1255 14.2963 74.4059C14.0741 74.7787 14.2222 75.226 14.5926 75.4497C26.6667 83.2779 39.4074 90.0625 52.0741 96.7724C67.1852 104.75 82.4445 112.429 97.8519 119.884C105.63 123.687 113.407 127.34 121.259 130.993C122.148 131.366 122.889 130.099 122 129.726C107.407 122.941 92.963 115.933 78.5926 108.701C63.7778 101.246 48.963 93.6411 34.5185 85.5146C28.0741 81.9359 21.6296 78.2082 15.4074 74.1822C15.4815 74.555 15.5556 74.8532 15.7037 75.226C21.7778 63.3717 27.4815 51.3684 32.7408 39.2159C34.2222 35.7864 35.7037 32.3568 37.1111 28.9273C37.4815 27.9581 36 27.5853 35.6296 28.48Z" fill="#DDDDDD"/>
<path d="M45.1851 39.4398C59.8518 48.2373 74.8888 56.3638 90.1481 63.8939C94.5185 66.056 98.8888 68.1435 103.333 70.1565C104.222 70.5293 104.963 69.2618 104.074 68.8891C88.5926 61.7318 73.4074 53.9035 58.5185 45.4788C54.2963 43.093 50.074 40.6327 45.9259 38.1724C45.1111 37.6505 44.3703 38.9925 45.1851 39.4398Z" fill="#DDDDDD"/>
<path d="M38.0741 47.641C50.1481 54.4255 62.2222 61.21 74.2963 67.9945C75.1111 68.4418 75.8518 67.1744 75.037 66.7271C62.9629 59.9426 50.8889 53.1581 38.8148 46.3735C38 45.8517 37.2592 47.1937 38.0741 47.641Z" fill="#DDDDDD"/>
<path d="M122.815 131.664C124.741 127.639 126.593 123.538 128.518 119.512C128.593 119.288 128.667 118.99 128.815 118.841C129.037 118.617 129.037 118.543 129.407 118.617C129.926 118.692 130.37 118.916 130.889 119.065C131.852 119.363 132.815 119.736 133.778 120.034C135.852 120.779 137.852 121.749 139.778 122.718C139.778 122.271 139.778 121.823 139.778 121.45C133.778 124.88 127.63 128.086 121.259 130.919C120.37 131.292 121.111 132.559 122 132.186C128.296 129.353 134.518 126.222 140.518 122.718C140.963 122.42 141.037 121.674 140.518 121.45C138.444 120.407 136.296 119.437 134.148 118.617C132.963 118.17 131.778 117.797 130.593 117.424C129.704 117.201 128.741 116.679 127.926 117.424C127.185 118.095 126.815 119.437 126.37 120.407C125.852 121.525 125.259 122.718 124.741 123.836C123.63 126.222 122.518 128.533 121.407 130.919C121.111 131.739 122.444 132.485 122.815 131.664Z" fill="#DDDDDD"/>
<path d="M181.63 69.7089C181.555 69.7835 181.481 69.7835 181.407 69.858C181.185 69.858 181.037 69.7835 180.815 69.7835C180.444 69.4852 180.37 69.2616 180.667 69.1125C180.518 69.187 180.444 69.2616 180.296 69.3361C180.074 69.4852 179.852 69.6344 179.555 69.7089C179.111 69.9326 178.741 70.1562 178.296 70.3799C177.407 70.8272 176.518 71.3491 175.704 71.7965C173.926 72.7657 172.148 73.7349 170.37 74.7041C169.556 75.1514 170.296 76.4189 171.111 75.9715C173.556 74.6295 176 73.2876 178.444 72.0201C179.037 71.7219 179.63 71.3491 180.222 71.0509C180.741 70.7527 181.407 70.529 181.704 70.0817C181.926 69.7089 182 69.187 181.852 68.8143C181.555 68.2924 180.963 68.2924 180.518 68.6651C179.852 69.3361 180.889 70.3799 181.63 69.7089Z" fill="#DDDDDD"/>
<path d="M114.963 39.1416C115.407 35.3392 116 31.5369 116.815 27.8092C117.037 26.84 115.556 26.4672 115.407 27.4364C114.593 31.3133 113.926 35.2647 113.481 39.2161C113.407 40.0362 114.889 40.0362 114.963 39.1416Z" fill="#DDDDDD"/>
<path d="M37.2592 8.9467C35.6296 6.11361 34 3.20596 32.3703 0.372867C31.9259 -0.447239 30.5925 0.298312 31.1111 1.11842C32.7407 3.95151 34.3703 6.85916 35.9999 9.69225C36.4444 10.5869 37.7777 9.84136 37.2592 8.9467Z" fill="#DDDDDD"/>
<path d="M9.92593 87.5278C6.74074 88.6461 3.62963 89.7645 0.444444 90.8828C-0.444445 91.181 -0.0740744 92.6721 0.814814 92.2993C4 91.181 7.11111 90.0627 10.2963 88.9444C11.2593 88.6461 10.8889 87.2296 9.92593 87.5278Z" fill="#DDDDDD"/>
<path d="M162.963 122.196C165.704 123.24 168.148 124.955 170.074 127.117C170.741 127.788 171.778 126.744 171.111 126.073C168.963 123.762 166.296 121.972 163.333 120.779C162.963 120.63 162.519 120.929 162.444 121.301C162.296 121.674 162.593 122.047 162.963 122.196Z" fill="#DDDDDD"/>
<path d="M100.148 96.1762C100.667 97.7419 101.037 99.3076 101.63 100.799C102.296 102.439 104.222 101.097 105.259 100.65C108.296 99.3076 111.407 98.1147 114.593 97.0709C115.481 96.7727 115.111 95.3561 114.222 95.6544C111.481 96.549 108.815 97.5182 106.148 98.6366C105.556 98.9348 104.889 99.1584 104.296 99.4567C104 99.6058 103.704 99.7549 103.333 99.904L102.741 100.202C102.815 100.202 102.889 100.277 103.037 100.277C103.037 100.202 102.963 100.128 102.963 100.053C102.889 99.3821 102.519 98.7111 102.296 98.0401C102.074 97.2946 101.778 96.549 101.556 95.8035C101.259 94.9088 99.8519 95.2816 100.148 96.1762Z" fill="#DDDDDD"/>
<path d="M114.37 87.0059C108.963 84.7693 102.444 85.142 97.8519 88.8698C93.7778 92.1502 91.037 98.4129 93.5556 103.483C94.8148 106.017 97.4074 107.732 99.8518 108.851C102.519 110.118 105.556 110.864 108.519 110.565C113.704 110.118 118.741 106.39 119.63 101.022C120.519 95.4306 118.444 87.826 112.889 85.3657C112 84.9929 111.259 86.2604 112.148 86.6331C116.444 88.5716 118.148 93.7904 118.296 98.1892C118.37 100.799 117.704 103.259 115.926 105.272C114.444 106.987 112.37 108.18 110.148 108.776C107.556 109.447 104.815 109.149 102.37 108.329C100 107.509 97.4815 106.167 95.7778 104.228C92.2963 100.277 94.4444 94.0887 97.7778 90.8082C102.074 86.6332 108.593 86.2604 113.926 88.4225C114.815 88.7952 115.259 87.3787 114.37 87.0059Z" fill="#DDDDDD"/>
<path d="M116.296 84.3219C109.481 81.4888 101.259 81.9361 95.4074 86.6331C90.2963 90.7336 86.8888 98.6365 90 104.899C91.6296 108.105 94.9629 110.342 98.1481 111.833C101.556 113.398 105.333 114.293 109.111 113.846C115.556 113.175 121.704 108.627 122.815 101.917C123.481 97.9655 122.815 93.6413 121.333 89.9881C120 86.6331 117.704 83.6509 114.37 82.2344C113.481 81.8616 112.741 83.129 113.63 83.5018C119.185 85.9621 121.333 92.7466 121.556 98.4128C121.704 101.768 120.741 104.974 118.518 107.509C116.593 109.671 114 111.236 111.259 111.907C107.926 112.727 104.444 112.429 101.259 111.385C98.1481 110.342 94.8888 108.627 92.6666 106.092C88.1481 101.022 90.7407 93.1194 95.037 88.8698C100.518 83.3527 109.037 82.7562 115.926 85.6639C116.815 86.1112 117.185 84.6947 116.296 84.3219Z" fill="#DDDDDD"/>
<path d="M69.2592 123.836C68.8148 127.713 68.3704 131.515 67.9259 135.392C67.8518 136.362 69.3333 136.362 69.4074 135.392C69.8518 131.515 70.2963 127.713 70.7407 123.836C70.8889 122.867 69.4074 122.867 69.2592 123.836Z" fill="#DDDDDD"/>
<path d="M125.037 145.83C126.815 148.514 128.222 151.421 129.111 154.478C129.407 155.373 130.815 155 130.518 154.105C129.555 150.9 128.148 147.843 126.296 145.084C125.778 144.264 124.518 145.01 125.037 145.83Z" fill="#DDDDDD"/>
</g>
<defs>
<clipPath id="clip0_39_2867">
<rect width="182" height="155" fill="white"/>
</clipPath>
</defs>
</svg>
