<svg width="280" height="234" viewBox="0 0 280 234" fill="none" xmlns="http://www.w3.org/2000/svg">
<g clip-path="url(#clip0_39_2915)">
<path d="M246.004 98.7018C239.832 82.6112 235.129 65.8339 227.194 50.4301C224.94 46.015 222.393 41.7961 219.552 37.7735C219.356 37.4791 218.866 37.1848 218.474 37.2829C207.502 41.5018 196.725 46.1131 185.948 50.7244C172.722 56.415 159.594 62.3018 146.564 68.1886C132.652 74.4678 118.74 80.9433 104.926 87.3207C91.6024 93.5018 78.3764 99.781 65.1504 106.06C54.1777 111.26 43.3029 116.46 32.3302 121.758C31.1546 122.347 30.0769 122.838 28.9012 123.426C27.7256 124.015 28.8033 125.683 29.8809 125.094C40.3638 119.992 50.9446 114.89 61.5255 109.887C74.4576 103.706 87.3897 97.6225 100.42 91.5395C114.234 85.064 128.145 78.6867 142.057 72.3093C155.283 66.3244 168.607 60.3395 181.931 54.5508C193.1 49.7433 204.171 44.9357 215.535 40.5207C216.711 40.0301 217.887 39.6376 219.062 39.1471C218.67 38.9508 218.278 38.8527 217.985 38.6565C227.978 52.7848 233.562 69.2678 239.244 85.4565C240.812 90.0678 242.477 94.581 244.241 99.0942C244.535 100.37 246.494 99.8791 246.004 98.7018Z" fill="#DDDDDD"/>
<path d="M36.9347 132.257C46.2419 149.721 55.0593 167.578 63.1908 185.532C65.5421 190.634 67.7955 195.736 70.0488 200.936C70.2447 201.328 70.7346 201.525 71.1265 201.427C80.3357 198.385 89.447 194.951 98.4603 191.419C109.531 187.102 120.504 182.491 131.378 177.879C143.331 172.778 155.185 167.578 166.942 162.279C178.698 156.981 190.357 151.683 202.015 146.189C212.596 141.283 223.079 136.279 233.562 131.178C234.737 130.589 235.913 130 237.089 129.411C238.264 128.823 237.187 127.155 236.109 127.744C225.92 132.747 215.633 137.653 205.444 142.461C193.884 147.857 182.323 153.253 170.665 158.551C158.908 163.849 147.054 169.147 135.101 174.249C124.031 179.057 112.862 183.668 101.693 188.181C92.3861 191.91 83.0789 195.442 73.5757 198.679C72.596 198.974 71.5183 199.366 70.5386 199.661C70.9305 199.857 71.3224 199.955 71.6163 200.151C63.8766 181.804 55.3532 163.849 46.4379 146.189C43.8906 141.185 41.3434 136.181 38.6982 131.276C38.0124 130.196 36.3469 131.178 36.9347 132.257Z" fill="#DDDDDD"/>
<path d="M58.4884 131.57C82.6871 122.74 106.494 112.928 129.909 102.038C136.571 98.9964 143.135 95.8567 149.699 92.619C150.875 92.0303 149.797 90.3624 148.719 90.9511C125.696 102.234 102.183 112.634 78.2784 121.955C71.5184 124.604 64.7585 127.155 57.9985 129.608C56.8229 130.098 57.3127 132.061 58.4884 131.57Z" fill="#DDDDDD"/>
<path d="M61.2315 147.562C80.6297 139.909 99.9299 132.159 119.328 124.506C120.504 124.015 120.014 122.151 118.838 122.642C99.4401 130.294 80.1398 138.045 60.7417 145.698C59.566 146.189 60.0559 148.053 61.2315 147.562Z" fill="#DDDDDD"/>
<path d="M239.146 128.234C236.207 122.053 233.268 115.872 230.329 109.691C230.231 109.396 229.839 108.906 229.937 108.611C230.035 108.415 230.623 108.121 230.819 108.023C231.504 107.532 232.19 107.14 232.876 106.649C234.15 105.766 235.521 104.981 236.893 104.196C239.636 102.626 242.575 101.155 245.514 99.8792C245.024 99.4868 244.535 99.0943 244.045 98.8C242.379 109.102 240.126 119.306 237.383 129.313C237.089 130.491 238.95 131.079 239.244 129.804C241.987 119.698 244.241 109.494 245.906 99.2906C246.102 98.4075 245.318 97.8189 244.437 98.2113C241.204 99.5849 237.971 101.253 234.933 103.019C233.366 103.902 231.896 104.883 230.427 105.864C229.349 106.551 227.978 107.336 227.978 108.808C227.978 109.494 228.467 110.279 228.761 110.868C229.153 111.751 229.545 112.634 230.035 113.517C230.819 115.283 231.7 117.049 232.484 118.717C234.15 122.249 235.815 125.683 237.481 129.215C238.069 130.392 239.734 129.411 239.146 128.234Z" fill="#DDDDDD"/>
<path d="M223.569 1.07926V0.981147C223.471 1.17737 223.373 1.47171 223.275 1.66794C223.275 1.66794 223.275 1.66794 223.373 1.56983C223.177 1.66794 222.883 1.76605 222.687 1.86417C222.099 1.86417 222.295 1.56983 222.099 2.25662C222.001 2.64907 222.001 2.94341 221.903 3.33586C221.805 4.12077 221.61 4.80756 221.512 5.59247C221.218 7.06417 220.924 8.43775 220.728 9.90945C220.14 12.8528 219.65 15.7962 219.062 18.7396C218.866 20.0151 220.728 20.5057 220.924 19.2302C221.707 15.1094 222.491 10.8906 223.275 6.76983C223.471 5.78869 223.667 4.80756 223.863 3.82643C224.059 3.04152 224.451 1.96228 224.157 1.17737C223.765 -0.0980978 221.707 -0.588664 221.707 1.07926C221.61 2.35473 223.569 2.35473 223.569 1.07926Z" fill="#DDDDDD"/>
<path d="M124.716 50.0379C120.602 45.819 116.781 41.502 113.156 36.8907C112.862 36.4982 112.078 36.5963 111.784 36.8907C111.392 37.2831 111.49 37.8718 111.784 38.2643C115.409 42.8756 119.328 47.2907 123.345 51.4114C124.227 52.2945 125.598 50.9209 124.716 50.0379Z" fill="#DDDDDD"/>
<path d="M15.8712 112.242C10.9726 111.457 6.07409 110.672 1.17556 109.789C-0.0980599 109.593 -0.587913 111.457 0.685705 111.653C5.58424 112.438 10.4828 113.223 15.3813 114.106C16.5569 114.302 17.1448 112.438 15.8712 112.242Z" fill="#DDDDDD"/>
<path d="M80.9237 218.596C79.2582 223.306 77.4948 228.113 75.8293 232.823C75.4374 234 77.2988 234.491 77.6907 233.313C79.3562 228.604 81.1197 223.796 82.7852 219.087C83.1771 217.91 81.3156 217.419 80.9237 218.596Z" fill="#DDDDDD"/>
<path d="M266.578 72.4075C270.399 70.249 274.71 68.9735 279.118 68.6792C280.392 68.5811 280.392 66.6188 279.118 66.7169C274.318 67.0113 269.713 68.3849 265.598 70.7396C264.423 71.4264 265.402 73.0943 266.578 72.4075Z" fill="#DDDDDD"/>
<path d="M176.837 121.17C178.012 121.66 179.286 122.151 180.462 122.543C181.539 122.936 182.617 123.524 183.793 123.819C184.772 124.015 185.458 123.426 185.752 122.641C186.144 121.464 186.34 120.287 186.732 119.109C188.103 114.4 189.671 109.69 191.434 105.079C191.924 103.902 189.965 103.411 189.573 104.589C188.005 108.611 186.536 112.732 185.36 116.951C185.066 117.932 184.772 118.913 184.478 119.894C184.283 120.483 184.185 120.974 184.087 121.562C184.087 121.562 183.891 122.053 183.891 122.151C184.283 122.053 184.38 121.955 184.087 121.955C183.989 121.955 183.891 121.857 183.793 121.857C181.637 121.072 179.482 120.189 177.425 119.404C176.249 118.815 175.759 120.777 176.837 121.17Z" fill="#DDDDDD"/>
<path d="M179.776 95.9548C172.722 99.7813 167.236 106.649 166.256 114.694C165.276 122.544 168.999 131.57 176.543 134.906C180.854 136.77 185.556 135.789 189.671 134.023C193.394 132.453 196.921 130.098 199.566 127.057C204.857 120.974 206.62 111.457 201.819 104.491C199.076 100.566 194.57 97.7209 190.161 96.053C185.654 94.2869 180.658 93.9926 176.249 96.1511C175.171 96.7397 176.151 98.4077 177.229 97.819C184.185 94.2869 193.296 98.3096 198.488 103.411C204.073 108.906 203.779 117.834 199.468 124.015C197.411 127.057 194.472 129.411 191.239 131.079C187.81 132.944 183.401 134.513 179.482 133.728C172.036 132.257 168.02 123.721 168.118 116.853C168.216 108.611 173.702 101.449 180.756 97.6228C181.833 97.1322 180.854 95.3662 179.776 95.9548Z" fill="#DDDDDD"/>
<path d="M178.502 91.2453C169.587 96.0529 162.631 104.785 161.456 115.087C160.28 124.898 165.08 136.279 174.486 140.4C179.874 142.755 185.752 141.381 190.945 139.223C195.647 137.26 200.056 134.317 203.387 130.491C209.951 122.936 212.204 111.064 206.326 102.332C202.897 97.2303 197.019 93.6001 191.435 91.5397C185.752 89.3812 179.482 88.8906 173.996 91.7359C172.918 92.3246 173.898 93.9925 174.975 93.4038C179.482 91.1472 184.675 91.3435 189.377 92.9133C194.178 94.4831 198.978 97.1321 202.505 100.762C209.461 107.826 209.167 119.109 203.681 126.959C201.036 130.785 197.215 133.826 193.1 136.083C188.691 138.438 183.107 140.498 178.013 139.517C173.212 138.634 169.097 134.906 166.648 130.785C164.297 126.86 163.121 122.347 163.219 117.834C163.317 107.238 170.371 97.917 179.482 93.0114C180.658 92.3246 179.678 90.5586 178.502 91.2453Z" fill="#DDDDDD"/>
<path d="M179.384 183.374C183.401 187.494 187.418 191.713 191.434 195.834C192.316 196.717 193.688 195.344 192.806 194.461C188.789 190.34 184.772 186.121 180.756 182C179.874 181.019 178.502 182.393 179.384 183.374Z" fill="#DDDDDD"/>
<path d="M258.152 139.026C262.953 139.419 267.656 140.694 272.064 142.558C272.554 142.755 273.142 142.362 273.24 141.872C273.436 141.283 273.044 140.891 272.554 140.694C267.95 138.732 263.051 137.555 258.152 137.162C256.879 136.966 256.879 138.928 258.152 139.026Z" fill="#DDDDDD"/>
<path d="M23.9048 170.422C19.1042 171.011 14.4016 172.287 10.0909 174.445C8.91529 175.034 9.99297 176.702 11.0706 176.113C15.0874 174.151 19.4961 172.875 23.9048 172.385C24.3946 172.287 24.8845 171.992 24.8845 171.404C24.8845 170.913 24.3946 170.324 23.9048 170.422Z" fill="#DDDDDD"/>
</g>
<defs>
<clipPath id="clip0_39_2915">
<rect width="280" height="234" fill="white"/>
</clipPath>
</defs>
</svg>
